<svg width="24" height="25" viewBox="0 0 24 25" fill="none" xmlns="http://www.w3.org/2000/svg">
<g clip-path="url(#clip0_3815_7064)">
<path d="M12 2.48584C6.477 2.48584 2 6.96284 2 12.4858C2 18.0088 6.477 22.4858 12 22.4858C17.523 22.4858 22 18.0088 22 12.4858C22 6.96284 17.523 2.48584 12 2.48584ZM13 20.4163V14.4858H15.5V12.4858H13V10.9858C13 10.4343 13.4485 9.98584 14 9.98584H15.5V7.98584H14C12.3455 7.98584 11 9.33134 11 10.9858V12.4858H8.5V14.4858H11V20.4163C7.06 19.9218 4 16.5578 4 12.4858C4 8.07434 7.589 4.48584 12 4.48584C16.411 4.48584 20 8.07434 20 12.4858C20 16.5578 16.94 19.9218 13 20.4163Z" fill="white"/>
</g>
<defs>
<clipPath id="clip0_3815_7064">
<rect width="24" height="24" fill="white" transform="translate(0 0.486328)"/>
</clipPath>
</defs>
</svg>
