<svg width="24" height="25" viewBox="0 0 24 25" fill="none" xmlns="http://www.w3.org/2000/svg">
<path d="M16 7.48633C16 7.22111 16.1054 6.96676 16.2929 6.77922C16.4804 6.59169 16.7348 6.48633 17 6.48633C17.2652 6.48633 17.5196 6.59169 17.7071 6.77922C17.8946 6.96676 18 7.22111 18 7.48633C18 7.75154 17.8946 8.0059 17.7071 8.19343C17.5196 8.38097 17.2652 8.48633 17 8.48633C16.7348 8.48633 16.4804 8.38097 16.2929 8.19343C16.1054 8.0059 16 7.75154 16 7.48633Z" fill="white"/>
<path fill-rule="evenodd" clip-rule="evenodd" d="M12 7.73633C10.7402 7.73633 9.53204 8.23677 8.64124 9.12757C7.75045 10.0184 7.25 11.2265 7.25 12.4863C7.25 13.7461 7.75045 14.9543 8.64124 15.8451C9.53204 16.7359 10.7402 17.2363 12 17.2363C13.2598 17.2363 14.468 16.7359 15.3588 15.8451C16.2496 14.9543 16.75 13.7461 16.75 12.4863C16.75 11.2265 16.2496 10.0184 15.3588 9.12757C14.468 8.23677 13.2598 7.73633 12 7.73633ZM8.75 12.4863C8.75 11.6244 9.09241 10.7977 9.7019 10.1882C10.3114 9.57874 11.138 9.23633 12 9.23633C12.862 9.23633 13.6886 9.57874 14.2981 10.1882C14.9076 10.7977 15.25 11.6244 15.25 12.4863C15.25 13.3483 14.9076 14.1749 14.2981 14.7844C13.6886 15.3939 12.862 15.7363 12 15.7363C11.138 15.7363 10.3114 15.3939 9.7019 14.7844C9.09241 14.1749 8.75 13.3483 8.75 12.4863Z" fill="white"/>
<path fill-rule="evenodd" clip-rule="evenodd" d="M17.2581 3.31936C13.7634 2.93196 10.2367 2.93196 6.74206 3.31936C4.73006 3.54436 3.10506 5.12936 2.86906 7.15136C2.45446 10.6959 2.45446 14.2768 2.86906 17.8214C3.10506 19.8434 4.72906 21.4284 6.74206 21.6534C10.2367 22.0404 13.7634 22.0404 17.2581 21.6534C19.2701 21.4284 20.8951 19.8434 21.1311 17.8214C21.5457 14.2768 21.5457 10.6959 21.1311 7.15136C20.8951 5.12936 19.2711 3.54436 17.2581 3.31936ZM6.90806 4.80936C10.2924 4.43423 13.7078 4.43423 17.0921 4.80936C18.4221 4.95936 19.4871 6.00836 19.6421 7.32636C20.043 10.7547 20.043 14.218 19.6421 17.6464C19.5619 18.2914 19.2666 18.8906 18.8039 19.3471C18.3412 19.8036 17.7381 20.0909 17.0921 20.1624C13.7078 20.5375 10.2924 20.5375 6.90806 20.1624C6.262 20.0909 5.65891 19.8036 5.19621 19.3471C4.73351 18.8906 4.43823 18.2914 4.35806 17.6464C3.9571 14.218 3.9571 10.7547 4.35806 7.32636C4.43823 6.68132 4.73351 6.08214 5.19621 5.62561C5.65891 5.16909 6.262 4.88087 6.90806 4.80936Z" fill="white"/>
</svg>
