<svg width="24" height="25" viewBox="0 0 24 25" fill="none" xmlns="http://www.w3.org/2000/svg">
<g clip-path="url(#clip0_3815_7072)">
<path d="M12 0.486328C5.37188 0.486328 0 5.8582 0 12.4863C0 19.1145 5.37188 24.4863 12 24.4863C18.6281 24.4863 24 19.1145 24 12.4863C24 5.8582 18.6281 0.486328 12 0.486328ZM19.4906 19.9723C18.5156 20.9473 17.3859 21.7113 16.125 22.241C14.8219 22.7941 13.4344 23.0707 12 23.0707C10.5703 23.0707 9.18281 22.7895 7.875 22.241C6.61406 21.7066 5.47969 20.9426 4.50937 19.9723C3.53437 18.9973 2.77031 17.8676 2.24063 16.6066C1.6875 15.3035 1.40625 13.916 1.40625 12.4863C1.40625 11.0566 1.6875 9.66914 2.23594 8.36133C2.77031 7.10039 3.53437 5.96602 4.50469 4.9957C5.48438 4.0207 6.61406 3.25664 7.875 2.72227C9.18281 2.17383 10.5703 1.89258 12 1.89258C13.4297 1.89258 14.8172 2.17383 16.125 2.72227C17.3859 3.25664 18.5203 4.0207 19.4906 4.99102C20.4656 5.96602 21.2297 7.0957 21.7594 8.35664C22.3125 9.65977 22.5891 11.0473 22.5891 12.4816C22.5891 13.9113 22.3078 15.2988 21.7594 16.6066C21.225 17.8676 20.4609 19.002 19.4906 19.9723Z" fill="white"/>
<path d="M8.64375 10.0205H6.30469V17.5064H8.64375V10.0205Z" fill="white"/>
<path d="M7.4248 6.48633C6.5623 6.48633 5.99512 7.04414 5.99512 7.78477C5.99512 8.51133 6.54355 9.0832 7.39199 9.0832H7.41074C8.29199 9.0832 8.84043 8.50664 8.83574 7.78477C8.81699 7.04414 8.2873 6.48633 7.4248 6.48633Z" fill="white"/>
<path d="M15.0329 9.9502C13.6923 9.9502 12.8532 10.6814 12.6985 11.1971V10.0205H10.0688C10.1017 10.6439 10.0688 17.5064 10.0688 17.5064H12.6985V13.4611C12.6985 13.2314 12.6892 13.0064 12.7548 12.8471C12.9329 12.3971 13.322 11.9283 14.0204 11.9283C14.9345 11.9283 15.347 12.6221 15.347 13.6346V17.5064H18.0001V13.3439C18.0001 11.0283 16.697 9.9502 15.0329 9.9502Z" fill="white"/>
</g>
<defs>
<clipPath id="clip0_3815_7072">
<rect width="24" height="24" fill="white" transform="translate(0 0.486328)"/>
</clipPath>
</defs>
</svg>
