<svg width="24" height="25" viewBox="0 0 24 25" fill="none" xmlns="http://www.w3.org/2000/svg">
<path d="M16.8218 5.62073C16.0887 4.78027 15.648 3.68438 15.648 2.48633H14.7294M16.8218 5.62073C17.4899 6.38696 18.3945 6.94421 19.4246 7.16241C19.7447 7.23207 20.0787 7.26926 20.4267 7.26926V10.7054C18.6451 10.7054 16.9933 10.1343 15.6478 9.16844V16.157C15.6478 19.649 12.8083 22.4863 9.32392 22.4863C7.50049 22.4863 5.8534 21.7061 4.69812 20.4663C3.64492 19.3333 3 17.8194 3 16.157C3 12.7161 5.75598 9.91142 9.17079 9.83712M16.8218 5.62073C16.804 5.60909 16.7862 5.59734 16.7685 5.58547M6.98556 17.838C6.64223 17.3644 6.43808 16.784 6.43808 16.1524C6.43808 14.5597 7.73255 13.2641 9.324 13.2641C9.62093 13.2641 9.90856 13.3151 10.1777 13.3987V9.88825C9.89927 9.85106 9.61628 9.82782 9.324 9.82782C9.27293 9.82782 8.86183 9.85517 8.81079 9.85517M14.7245 2.48633H12.2098L12.2052 16.2638C12.1495 17.8055 10.8782 19.0454 9.32392 19.0454C8.35884 19.0454 7.50977 18.5671 6.98085 17.8427" stroke="white" stroke-linejoin="round"/>
</svg>
