<svg width="24" height="25" viewBox="0 0 24 25" fill="none" xmlns="http://www.w3.org/2000/svg">
<path d="M19.607 7.48133C19.531 7.18333 19.315 6.95833 19.068 6.88933C18.63 6.76633 16.501 6.48633 12.001 6.48633C7.501 6.48633 5.373 6.76633 4.932 6.88933C4.688 6.95733 4.472 7.18233 4.395 7.48133C4.286 7.90533 4.001 9.68133 4.001 12.4863C4.001 15.2903 4.286 17.0663 4.395 17.4923C4.471 17.7893 4.687 18.0143 4.933 18.0823C5.373 18.2063 7.5 18.4863 12 18.4863C16.5 18.4863 18.629 18.2063 19.069 18.0833C19.313 18.0153 19.529 17.7903 19.606 17.4913C19.716 17.0673 20 15.2863 20 12.4863C20 9.68633 19.716 7.90633 19.607 7.48133ZM21.544 6.98433C22.001 8.76633 22.001 12.4863 22.001 12.4863C22.001 12.4863 22.001 16.2063 21.544 17.9883C21.29 18.9733 20.547 19.7483 19.606 20.0103C17.897 20.4863 12 20.4863 12 20.4863C12 20.4863 6.107 20.4863 4.395 20.0103C3.45 19.7443 2.708 18.9703 2.457 17.9883C2 16.2063 2 12.4863 2 12.4863C2 12.4863 2 8.76633 2.457 6.98433C2.711 5.99933 3.454 5.22433 4.395 4.96233C6.108 4.48633 12.001 4.48633 12.001 4.48633C12.001 4.48633 17.897 4.48633 19.606 4.96233C20.55 5.22833 21.293 6.00233 21.544 6.98433ZM10.001 15.9863V8.98633L16.001 12.4863L10.001 15.9863Z" fill="white"/>
</svg>
