<svg width="73" height="83" viewBox="0 0 73 83" fill="none" xmlns="http://www.w3.org/2000/svg">
<path d="M62.2681 43.5939C62.2503 41.9996 61.8772 40.4253 61.2958 38.9465C60.8471 37.8018 60.3261 36.687 59.8175 35.5682C55.7692 26.7459 51.521 18.0167 47.0761 9.38746C46.4509 8.18171 45.8389 6.96868 45.1787 5.78159C44.5299 4.62361 43.7746 3.50886 42.7968 2.6025C41.2366 1.11511 39.1432 0.228313 36.9947 0.0945435H36.0055C33.7937 0.203743 31.6348 1.13194 30.0477 2.67894C29.1059 3.5712 28.377 4.6591 27.7454 5.78477C27.0939 6.9523 26.4905 8.14622 25.8772 9.33286C22.8946 15.1224 19.9999 20.9568 17.194 26.834C15.5214 30.3511 13.8629 33.8742 12.2677 37.4259C11.6061 38.9056 11.0078 40.4358 10.7826 42.051C10.3653 44.7783 10.9637 47.6407 12.4206 49.9826C13.6764 52.0169 15.5614 53.6562 17.7586 54.6031C19.4763 55.3444 21.3431 55.6749 23.2109 55.5681C25.7057 55.4357 28.1112 54.5394 30.222 53.2313C32.5766 51.7862 34.5904 49.8643 36.4655 47.8522C38.2091 49.7314 40.075 51.5246 42.229 52.9301C44.3092 54.2987 46.6812 55.2897 49.1759 55.5254C51.8854 55.8084 54.6928 55.1368 56.9669 53.6285C58.9783 52.2957 60.5359 50.3818 61.4323 48.1416C62.0095 46.6961 62.2936 45.1502 62.2681 43.5939ZM36.4769 42.5419C35.7966 41.7411 35.1974 40.8748 34.5954 40.0149C33.5826 38.5293 32.6617 36.9764 31.921 35.3357C31.314 33.9743 30.8267 32.5451 30.6365 31.0609C30.4977 29.8834 30.5309 28.6549 30.9632 27.537C31.3499 26.4886 32.0934 25.5805 33.0352 24.9803C35.2793 23.532 38.478 23.6886 40.5114 25.4453C41.5406 26.3221 42.1553 27.6184 42.31 28.9506C42.5124 30.7215 42.1098 32.5001 41.4914 34.1517C40.3239 37.2166 38.4757 39.9639 36.4769 42.5419ZM58.4957 46.298C57.896 48.3678 56.4546 50.1759 54.5686 51.2192C52.8969 52.1543 50.9017 52.4746 49.0171 52.1597C46.617 51.7862 44.4635 50.5126 42.5975 49.0093C41.2262 47.9073 39.9913 46.6479 38.8083 45.3498C40.6761 42.9874 42.4356 40.5158 43.7796 37.814C44.9526 35.448 45.844 32.8846 45.9286 30.2242C45.9764 28.5361 45.6588 26.8171 44.8703 25.3143C43.8379 23.3064 41.9883 21.7639 39.868 21.0177C37.8874 20.3102 35.6856 20.2469 33.665 20.823C31.7594 21.3622 30.0191 22.5074 28.8265 24.0949C27.7768 25.479 27.1785 27.1807 27.0397 28.9065C26.8263 31.3922 27.4492 33.8719 28.3915 36.1569C29.7925 39.4957 31.8486 42.5178 34.1195 45.3211C33.0955 46.5037 31.9844 47.6079 30.7953 48.6244C28.9516 50.1846 26.8422 51.5428 24.4526 52.0596C22.5207 52.4933 20.4363 52.2776 18.6645 51.3812C16.5893 50.347 14.9959 48.3992 14.3948 46.1601C13.9353 44.5153 14.0372 42.7394 14.5836 41.1283C15.0382 39.7951 15.6547 38.5247 16.2316 37.2421C20.2365 28.5149 24.4371 19.8788 28.8301 11.3403C29.4853 10.0695 30.1305 8.79278 30.8239 7.54289C31.39 6.53598 32.0484 5.54726 32.9788 4.84019C33.9849 4.05641 35.2295 3.64156 36.5046 3.66493C37.815 3.64946 39.1177 4.13221 40.1201 4.97442C41.1101 5.7966 41.779 6.92136 42.3796 8.04248C43.7373 10.5928 45.0413 13.1726 46.3458 15.7497C50.0688 23.1183 53.6461 30.5596 57.0756 38.0693C57.5939 39.2359 58.1485 40.3934 58.4975 41.6247C58.9238 43.143 58.9379 44.7828 58.4957 46.298ZM17.0484 62.4473C18.1695 62.1934 19.3943 62.9328 19.6855 64.0457C20.0473 65.1846 19.3284 66.5086 18.1836 66.838C17.0652 67.2312 15.7371 66.5477 15.3667 65.4312C15.0154 64.4902 15.3913 63.3546 16.2257 62.7981C16.4745 62.6288 16.754 62.5097 17.0484 62.4473ZM24.6205 69.7987C25.2957 69.0648 26.2471 68.6048 27.2272 68.4583C27.881 68.3944 28.5409 68.4362 29.1814 68.5821C29.1732 69.6154 29.1796 70.6473 29.1778 71.6811C28.1727 71.4213 27.0843 71.3676 26.0979 71.7307C25.562 71.9258 25.0791 72.2431 24.6874 72.6575C24.6027 72.7298 24.6232 72.8468 24.6155 72.9473C24.6214 75.8343 24.6109 78.7217 24.6196 81.6082C24.6096 81.7193 24.6364 81.8444 24.5873 81.9486C23.4725 81.9745 22.3564 81.9536 21.2412 81.9577C21.2416 77.5565 21.2376 73.1544 21.2439 68.7531C22.183 68.7572 23.1226 68.7495 24.0622 68.755C24.2688 68.7431 24.489 68.8491 24.5645 69.0507C24.6387 69.2919 24.615 69.5489 24.6205 69.7987ZM48.6572 69.8106C49.5495 68.8874 50.8426 68.4333 52.1116 68.4305C53.4525 68.3969 54.8266 68.7932 55.8626 69.6631C56.5516 70.2036 57.0485 70.9512 57.2799 71.7957C57.5748 72.8245 57.5484 73.9051 57.5447 74.9648C57.5456 77.2962 57.5447 79.6281 57.5456 81.96C56.4213 81.9581 55.2975 81.9672 54.1732 81.955C54.1741 79.6249 54.1732 77.2948 54.1741 74.9639C54.1741 74.098 54.215 73.1639 53.7546 72.3927C53.4338 71.8394 52.7991 71.5637 52.1871 71.4995C51.0214 71.313 49.8038 71.7766 49.0003 72.6265C48.9147 72.7121 48.8415 72.8204 48.851 72.9496C48.8401 73.31 48.8947 73.6717 48.8638 74.0325C48.8197 74.5225 48.8884 75.0126 48.8724 75.504C48.858 76.4304 48.8568 77.3571 48.8688 78.2836C48.8051 79.5089 48.9161 80.7383 48.8429 81.9622C47.7231 81.9586 46.6043 81.9613 45.4845 81.9609C45.4841 77.5574 45.4763 73.1548 45.4886 68.7518C46.3545 68.7586 47.2221 68.7518 48.0876 68.7545C48.3114 68.7404 48.5562 68.8655 48.614 69.093C48.6668 69.3269 48.6508 69.5703 48.6572 69.8106ZM15.8153 81.9604C15.8149 77.5574 15.8085 73.1548 15.8176 68.7522C16.9333 68.755 18.0485 68.754 19.1637 68.7531C19.1723 73.1557 19.1659 77.5583 19.1668 81.96C18.0498 81.96 16.9328 81.9591 15.8153 81.9604ZM13.7373 68.7536C12.8533 68.7518 11.9692 68.7563 11.0842 68.7486C10.8504 68.7472 10.5519 68.7586 10.4377 69.0043C10.3353 69.2568 10.3744 69.5371 10.3653 69.8028C9.62959 69.0198 8.59265 68.5548 7.52886 68.4537C5.88631 68.3063 4.18415 68.7618 2.86511 69.7591C1.77857 70.5618 0.975493 71.7225 0.555073 73.001C0.352598 73.6003 0.251133 74.2291 0.186523 74.8574V75.7615C0.280708 77.6538 1.12246 79.5257 2.59074 80.7456C3.69821 81.6838 5.12145 82.2079 6.56335 82.2994H7.31501C8.45797 82.2225 9.58637 81.7498 10.3662 80.898C10.3735 81.1651 10.3358 81.4481 10.4359 81.7038C10.54 81.9108 10.7857 81.9677 10.9991 81.9595C11.9114 81.9572 12.8251 81.9604 13.7382 81.9554C13.7382 77.556 13.741 73.1548 13.7373 68.7536ZM10.262 77.8459C9.57954 78.663 8.51348 79.1462 7.44878 79.1126C6.30764 79.1212 5.12327 78.684 4.3839 77.789C3.66272 76.9345 3.44478 75.746 3.60858 74.6599C3.73097 73.7809 4.17915 72.9378 4.88713 72.3922C5.52913 71.8854 6.33858 71.6242 7.14893 71.5678C8.35605 71.4622 9.62868 71.9946 10.3549 72.9692C10.3958 74.4042 10.3558 75.8429 10.374 77.2803C10.3621 77.4696 10.4145 77.6975 10.262 77.8459ZM43.5571 72.5315C43.0375 71.2606 42.1157 70.1559 40.9472 69.4352C39.7438 68.6862 38.3005 68.3477 36.8896 68.4437C35.7753 68.517 34.6864 68.9925 33.9129 69.8051C33.9084 67.3385 33.9129 64.8734 33.9107 62.4068C32.7859 62.4073 31.6602 62.4018 30.5355 62.41C30.5414 68.9247 30.5259 75.4425 30.5437 81.9568C31.4751 81.9591 32.4073 81.9613 33.3392 81.9591C33.5708 81.9773 33.8206 81.8499 33.8843 81.6155C33.9302 81.3771 33.9134 81.131 33.9148 80.8894C34.6965 81.7589 35.8449 82.2307 36.9997 82.3003H37.6885C39.5581 82.2066 41.3913 81.3302 42.5648 79.861C44.2082 77.8459 44.529 74.9166 43.5571 72.5315ZM39.6236 78.0888C38.8702 78.7882 37.8273 79.1235 36.809 79.1135C35.7466 79.1381 34.6851 78.6498 34.0121 77.8277C33.9289 77.7421 33.9016 77.6265 33.9084 77.5128C33.9093 76.0013 33.9107 74.4902 33.9084 72.9796C34.5545 72.137 35.5887 71.6119 36.6466 71.5578C37.719 71.5264 38.8442 71.8412 39.6314 72.5974C40.3812 73.2931 40.747 74.3364 40.7234 75.347C40.7452 76.3562 40.3694 77.3927 39.6236 78.0888ZM71.3089 70.8971C69.8784 69.0753 67.4328 68.1562 65.1528 68.497C64.2005 68.6471 63.2982 69.1039 62.6325 69.8046C62.6253 67.3394 62.6325 64.8743 62.6289 62.4082C61.506 62.4068 60.3839 62.4059 59.2619 62.4091C59.261 68.9242 59.2619 75.4412 59.2619 81.9572C60.1469 81.9641 61.0341 81.9559 61.9191 81.9641C62.1516 81.9677 62.4424 81.949 62.5616 81.7115C62.6648 81.4549 62.6262 81.1687 62.6335 80.8989C63.4092 81.7488 64.5326 82.2184 65.6692 82.3012H66.4272C68.2764 82.2007 70.0841 81.3375 71.2552 79.8906C72.2117 78.7367 72.7276 77.2589 72.8132 75.7706V74.8874C72.7072 73.4506 72.2221 72.0237 71.3089 70.8971ZM68.6809 77.7094C67.7904 78.8555 66.2193 79.2818 64.8256 79.0593C63.9771 78.8901 63.154 78.4319 62.6521 77.7166C62.5961 77.162 62.6466 76.601 62.6298 76.0436C62.6416 75.0185 62.6043 73.9902 62.6466 72.9669C63.1572 72.263 63.9743 71.8116 64.8152 71.6251C66.3713 71.3375 68.1804 71.9541 68.9671 73.3909C69.6832 74.7209 69.6118 76.4981 68.6809 77.7094Z" fill="#121212"/>
</svg>
