<svg width="110" height="110" viewBox="0 0 110 110" fill="none" xmlns="http://www.w3.org/2000/svg">
<path fill-rule="evenodd" clip-rule="evenodd" d="M93.56 69.1823C92.3661 67.6524 85.6433 68.4595 82.627 68.8167C81.7074 68.9292 81.5668 68.1305 82.395 67.5539C87.7497 63.7854 96.5354 64.8738 97.5591 66.1365C98.5842 67.4077 97.2919 76.2145 92.2607 80.4176C91.4901 81.063 90.7519 80.7185 91.0964 79.8635C92.2255 77.0414 94.7594 70.7192 93.56 69.1823Z" fill="black"/>
<path fill-rule="evenodd" clip-rule="evenodd" d="M89.7707 73.6479C80.3635 80.5819 66.7282 84.2814 54.9884 84.2814C38.5273 84.2814 23.7082 78.1929 12.4968 68.0671C11.6162 67.2707 12.4052 66.1856 13.4623 66.8056C25.5614 73.8453 40.5216 78.0803 55.975 78.0803C66.397 78.0803 77.8619 75.924 88.4037 71.4495C89.9962 70.7729 91.328 72.4924 89.7707 73.6479Z" fill="black"/>
<path fill-rule="evenodd" clip-rule="evenodd" d="M91.7969 48.2671C87.7009 48.2671 85.6528 49.8483 85.6528 53.009C85.6528 55.7608 87.1016 57.1365 89.9978 57.1365C91.1088 57.1365 92.3085 56.9175 93.5963 56.4776C94.8837 56.0393 96.1856 55.3953 97.5026 54.5461V49.0575C95.5127 48.5304 93.6107 48.2671 91.7969 48.2671ZM92.4118 36.1925C97.4731 36.1925 100.003 38.3739 100.003 42.7353V58.2778C100.003 58.7175 99.7837 58.9367 99.3454 58.9367H98.424C97.9847 58.9367 97.7504 58.7174 97.7218 58.2779L97.5464 56.3901C95.0296 58.4095 92.3966 59.4201 89.6473 59.4201C87.6276 59.4201 86.0263 58.8419 84.8413 57.6852C83.6558 56.5298 83.0635 54.9853 83.0635 53.053C83.0635 50.917 83.7886 49.2332 85.236 48.0043C86.6845 46.7741 88.6811 46.1604 91.2268 46.1604C92.1626 46.1604 93.1865 46.2479 94.2985 46.4231C95.4098 46.5987 96.4781 46.8476 97.5026 47.1699V43.482C97.5026 41.6962 97.0777 40.4152 96.2293 39.6396C95.3802 38.8644 93.9765 38.476 92.0164 38.476C90.2025 38.476 88.2862 38.7687 86.2676 39.3542C85.9456 39.4422 85.6894 39.5224 85.4999 39.596C85.3082 39.6692 85.1556 39.7051 85.0394 39.7051C84.6874 39.7051 84.5119 39.5151 84.5119 39.1346V38.4323C84.5119 37.9927 84.7019 37.701 85.0831 37.5543C86.1944 37.1144 87.387 36.7786 88.6593 36.5443C89.9323 36.3099 91.1825 36.1925 92.4118 36.1925ZM71.0966 49.1895L64.733 58.4532C64.4987 58.7764 64.1918 58.9367 63.8116 58.9367H62.583C62.2018 58.9367 62.0122 58.7764 62.0122 58.4532C62.0122 58.337 62.1141 58.146 62.3191 57.8831L69.8239 47.4331L62.9777 37.8612C62.8022 37.5978 62.7144 37.4227 62.7144 37.3347C62.7144 37.0124 62.9044 36.8512 63.2845 36.8512H64.6453C65.0255 36.8512 65.3327 37.0124 65.567 37.3347L71.3165 45.5016L77.0649 37.3347C77.2982 37.0124 77.592 36.8512 77.9425 36.8512H79.1271C79.5077 36.8512 79.6979 37.0124 79.6979 37.3347C79.6979 37.4522 79.6105 37.6415 79.4347 37.905L72.6762 47.2577L80.1814 57.8832C80.3568 58.1461 80.4442 58.3371 80.4442 58.4532C80.4442 58.7764 80.2532 58.9367 79.873 58.9367H78.5137C78.1621 58.9367 77.8692 58.7764 77.6357 58.4532L71.0966 49.1895ZM50.829 38.4323C48.6353 38.4323 46.9011 39.0759 45.6288 40.3639C44.3558 41.6521 43.5881 43.5402 43.3252 46.0276C44.4657 46.3212 45.6 46.5407 46.726 46.6864C47.8514 46.8332 48.9859 46.9057 50.1264 46.9057C52.3212 46.9057 53.9299 46.5843 54.9545 45.9401C55.9781 45.2961 56.4904 44.2714 56.4904 42.8669C56.4904 39.91 54.6032 38.4324 50.829 38.4324V38.4323ZM56.4026 56.5655C56.7828 56.4491 57.0612 56.3542 57.2366 56.28C57.4121 56.2074 57.5728 56.1709 57.7193 56.1709C58.0706 56.1709 58.2457 56.3616 58.2457 56.7419V57.356C58.2457 57.825 58.0851 58.132 57.7634 58.2779C55.6561 59.1558 53.4187 59.5955 51.0485 59.5955C47.6843 59.5955 45.1161 58.6223 43.3467 56.6754C41.5762 54.7294 40.6922 51.8829 40.6922 48.1358C40.6922 46.2915 40.9257 44.6299 41.3933 43.1523C41.8612 41.6743 42.5412 40.4152 43.434 39.3757C44.3262 38.3372 45.4164 37.5468 46.7034 37.0054C47.9912 36.4638 49.4394 36.1925 51.0485 36.1925C53.5938 36.1925 55.5612 36.7787 56.9509 37.9487C58.3405 39.1206 59.0357 40.7587 59.0357 42.8669C59.0357 44.9455 58.2968 46.4747 56.8198 47.4554C55.3421 48.4353 53.0522 48.9263 49.9513 48.9263C48.839 48.9263 47.7196 48.8598 46.5945 48.7285C45.4678 48.5969 44.3484 48.3702 43.2364 48.0479C43.2364 51.2086 43.902 53.5432 45.2335 55.0506C46.565 56.5594 48.5617 57.3121 51.2239 57.3121C52.9504 57.3121 54.6762 57.0639 56.4027 56.5656L56.4026 56.5655ZM32.5031 27.1039C32.5031 26.6652 32.7223 26.4453 33.1617 26.4453H34.3462C34.7845 26.4453 35.0043 26.6652 35.0043 27.1039V55.1168C35.0043 55.7608 35.1284 56.2145 35.3778 56.4776C35.6259 56.7419 36.0723 56.8736 36.7164 56.8736C36.8914 56.8736 37.0895 56.8587 37.3087 56.8295C37.5278 56.8 37.7104 56.7855 37.8569 56.7855C38.2659 56.7855 38.4717 56.9904 38.4717 57.4V58.2341C38.4717 58.5857 38.2811 58.8053 37.9009 58.8927C37.7255 58.9512 37.469 58.9948 37.1332 59.0244C36.7956 59.0528 36.4965 59.0684 36.233 59.0684C35.0629 59.0684 34.1482 58.7246 33.49 58.0358C32.8322 57.3492 32.5031 56.3901 32.5031 55.1609L32.5031 27.1039ZM18.5036 48.2671C14.4076 48.2671 12.3595 49.8483 12.3595 53.009C12.3595 55.7608 13.8083 57.1365 16.7046 57.1365C17.8155 57.1365 19.0155 56.9175 20.3026 56.4776C21.5904 56.0393 22.892 55.3953 24.209 54.5461V49.0575C22.2194 48.5304 20.3171 48.2671 18.5036 48.2671ZM19.1181 36.1925C24.1798 36.1925 26.7095 38.3739 26.7095 42.7353V58.2778C26.7095 58.7175 26.4908 58.9367 26.0525 58.9367H25.1304C24.6914 58.9367 24.4571 58.7174 24.4282 58.2779L24.2531 56.3901C21.7359 58.4095 19.1029 59.4201 16.3536 59.4201C14.3344 59.4201 12.7326 58.8419 11.5481 57.6852C10.3628 56.5298 9.77051 54.9853 9.77051 53.053C9.77051 50.917 10.4949 49.2332 11.9427 48.0043C13.3915 46.7741 15.3882 46.1604 17.9335 46.1604C18.8693 46.1604 19.8929 46.2479 21.0052 46.4231C22.1165 46.5987 23.1844 46.8476 24.209 47.1699V43.482C24.209 41.6962 23.7841 40.4152 22.9357 39.6396C22.0869 38.8644 20.6828 38.476 18.7224 38.476C16.9093 38.476 14.9929 38.7687 12.9743 39.3542C12.6519 39.4422 12.3961 39.5224 12.207 39.596C12.0149 39.6692 11.862 39.7051 11.7457 39.7051C11.3941 39.7051 11.2186 39.5151 11.2186 39.1346V38.4323C11.2186 37.9927 11.4085 37.701 11.7897 37.5543C12.9011 37.1144 14.0937 36.7786 15.366 36.5443C16.639 36.3099 17.8887 36.1925 19.1181 36.1925Z" fill="black" stroke="black" stroke-width="1.40575"/>
</svg>
