<svg width="70" height="72" viewBox="0 0 70 72" fill="none" xmlns="http://www.w3.org/2000/svg">
<path d="M54.3075 56.414C54.3141 58.969 55.2095 61.5817 55.2085 64.1367C55.2075 66.7302 54.3101 69.266 54.3181 71.8595C41.4366 71.8576 28.5548 71.8595 15.6736 71.8584C15.6798 69.3089 14.4732 66.6861 14.4722 64.1367C14.4712 61.5381 15.6758 59.0129 15.681 56.414C28.5567 56.4181 41.4317 56.4151 54.3075 56.414Z" fill="#747474"/>
<path d="M39.4024 13.8129C41.1917 12.0274 44.0482 11.0866 45.8169 9.28073C53.146 16.6549 60.506 24.0002 67.8525 31.3592C68.5143 32.0406 69.3213 32.6677 69.5797 33.6292C69.8321 34.2549 69.7549 34.9366 69.7663 35.5944C69.7674 46.3692 69.7652 57.1428 69.7679 67.9164C69.9307 70.0425 67.9038 72.0283 65.787 71.8593C61.9637 71.8593 58.1412 71.8604 54.3176 71.8593C54.3021 66.7109 54.3206 61.5625 54.3072 56.4141C54.3165 50.7538 54.3113 45.0946 54.3094 39.4354C49.5376 34.6712 44.7761 29.8961 40.0075 25.1297C38.3439 23.4517 36.6545 21.7981 35.0063 20.1057C35.91 19.2409 38.4674 14.746 39.4024 13.8129Z" fill="#121212"/>
<path d="M15.6687 39.4562C15.6902 45.108 15.6665 50.7613 15.6809 56.4139C15.6706 61.5624 15.6861 66.7099 15.6739 71.8583C11.6506 71.8564 7.62724 71.8594 3.60394 71.8564C1.92376 71.6453 0.444361 70.2309 0.230263 68.5371C0.21695 63.9943 0.226188 59.451 0.227275 54.9087C2.90812 52.2529 4.58065 48.8036 7.25226 46.1382C9.72716 43.653 13.2052 41.9528 15.6687 39.4562Z" fill="#121212"/>
<path d="M34.7953 0.00694046C35.1278 0.0482386 35.5231 -0.0827199 35.8187 0.103665C36.6216 0.260163 37.3256 0.724495 37.8902 1.30403C40.2887 3.70801 42.6895 6.10982 45.0905 8.51163C45.3312 8.76893 45.6121 8.99037 45.817 9.28054C43.1239 12.0304 40.3803 14.7297 37.6677 17.46C36.7781 18.3392 35.91 19.241 35.0064 20.1058C33.8142 21.229 32.6858 22.418 31.5183 23.567C26.237 28.8656 20.9373 34.145 15.6683 39.4561C13.2048 41.9528 10.7114 44.4214 8.23623 46.9067C5.56489 49.572 2.90768 52.2529 0.226836 54.9087C0.217599 49.0851 0.226836 43.261 0.224934 37.4382C0.231183 36.339 0.207274 35.2394 0.245312 34.1409C0.234172 33.9184 0.40181 33.7423 0.391485 33.5201C0.547168 33.2587 0.686006 32.9867 0.837342 32.7232C1.21826 32.2167 1.69183 31.7926 2.13361 31.3408C12.1269 21.3268 22.1233 11.315 32.1196 1.30294C32.5285 0.873657 32.9966 0.483499 33.5661 0.288963C33.9655 0.155288 34.3608 -0.0392482 34.7953 0.00694046Z" fill="#747474"/>
</svg>
