<svg width="114" height="46" viewBox="0 0 114 46" fill="none" xmlns="http://www.w3.org/2000/svg">
<path d="M0 0.199982V45.8H114V0.199982H0ZM57.0095 43.52C25.213 43.52 2.28 34.21 2.28 23C2.28 11.79 25.2272 2.47998 57.0095 2.47998C88.787 2.47998 111.72 11.79 111.72 23C111.72 34.21 88.806 43.52 57.0095 43.52ZM55.9408 14.7255H75.7767V19.3045C75.2875 19.0812 74.8125 19.0812 74.3232 19.0812H65.9727V21.2662H73.9955V24.7432H65.9727V26.914H74.3232C74.8125 26.914 75.2875 26.914 75.7767 26.6765V31.2697H55.9408C56.1878 30.79 56.1878 30.3292 56.1878 29.8495V16.16C56.1878 15.6802 56.1878 15.2195 55.9408 14.7255ZM22.3298 16.16V29.8447C22.3298 30.3245 22.3297 30.7852 22.5767 31.265H11.4C11.647 30.7852 11.647 30.3245 11.647 29.8447V16.16C11.647 15.6802 11.647 15.2195 11.4 14.7397H22.5767C22.3297 15.2195 22.3298 15.6802 22.3298 16.16ZM52.953 29.8447C53.314 30.353 53.7035 30.8327 54.1642 31.265H41.8238C41.8238 30.7852 41.3488 29.8115 40.8263 29.0467C40.3038 28.282 37.4775 24.0877 37.4775 24.0877V29.8447C37.4775 30.3245 37.4775 30.7852 37.7245 31.265H27.4455C27.6925 30.7852 27.6925 30.3245 27.6925 29.8447V16.16C27.6925 15.6802 27.6925 15.2195 27.4455 14.7397H37.7245C37.4775 15.2195 37.4775 15.6802 37.4775 16.16V22.1402C37.4775 22.1402 40.7598 17.9602 41.515 16.9865C42.085 16.255 42.788 15.2147 42.788 14.7397H53.5088C52.7725 15.2195 51.9555 16.0792 51.2858 16.8772L47.3622 21.5512C47.3622 21.5512 52.2975 28.9042 52.953 29.8447ZM103.047 15.571C103.047 15.3492 102.959 15.1363 102.804 14.9781C102.648 14.8199 102.437 14.7292 102.215 14.7255H101.218V17.3427H101.612V16.4165H102.182L102.704 17.3427H103.146L102.576 16.3357C102.716 16.2627 102.834 16.153 102.917 16.0184C103 15.8837 103.045 15.7291 103.047 15.571ZM102.149 16.0507H101.607V15.1435H102.196C102.457 15.1435 102.638 15.3667 102.638 15.6232C102.638 15.875 102.41 16.065 102.149 16.0507ZM102.049 13.88H101.902C101.622 13.8843 101.347 13.944 101.09 14.0558C100.834 14.1676 100.603 14.3292 100.41 14.5312C100.217 14.7331 100.066 14.9715 99.9654 15.2324C99.8652 15.4932 99.8178 15.7714 99.826 16.0507C99.826 16.084 99.826 16.1315 99.8118 16.16C99.8353 16.7446 100.089 17.2962 100.518 17.6941C100.947 18.092 101.516 18.3038 102.101 18.2832C102.391 18.2795 102.677 18.2188 102.943 18.1046C103.209 17.9904 103.449 17.8249 103.651 17.6176C103.853 17.4103 104.013 17.1652 104.12 16.8964C104.227 16.6275 104.281 16.3402 104.277 16.0507V15.97C104.268 15.6863 104.204 15.4072 104.087 15.1485C103.97 14.8898 103.804 14.6567 103.597 14.4625C103.39 14.2684 103.147 14.117 102.881 14.017C102.615 13.917 102.333 13.8705 102.049 13.88ZM102.049 17.7892C101.583 17.7931 101.134 17.6125 100.8 17.2868C100.467 16.9612 100.275 16.5169 100.268 16.0507V15.9225C100.279 15.6997 100.333 15.4813 100.429 15.2797C100.524 15.0781 100.659 14.8974 100.824 14.7478C100.99 14.5982 101.183 14.4827 101.393 14.408C101.603 14.3333 101.826 14.3007 102.049 14.3122C103.027 14.3122 103.83 15.096 103.83 16.0507C103.83 17.0055 103.032 17.7892 102.049 17.7892ZM97.8833 16.179C97.7028 15.6992 97.4415 15.2385 97.5745 14.7587H83.2438C83.3102 15.2385 83.1297 15.6992 82.9492 16.179L77.8667 29.8637C77.7083 30.384 77.4466 30.8671 77.0973 31.284H85.576C85.5095 30.8042 85.69 30.3435 85.8515 29.8637C86.013 29.384 86.1935 28.9232 86.1935 28.9232L86.2933 28.6667H92.4873L92.587 28.9042C92.815 29.4647 92.9813 29.8447 92.9813 29.8447C93.176 30.3245 93.3565 30.7852 93.309 31.265H104.058C103.695 30.8521 103.422 30.3685 103.256 29.8447C101.475 25.2855 99.6842 20.7302 97.8833 16.179ZM87.59 25.1707C88.3263 23.1757 88.9628 21.5037 89.0103 21.3422C89.1432 20.9907 89.2383 20.625 89.3048 20.2592C89.3855 20.625 89.4995 20.9907 89.6325 21.3422L91.1335 25.1707H87.59Z" fill="#121212"/>
</svg>
