<svg width="123" height="31" viewBox="0 0 123 31" fill="none" xmlns="http://www.w3.org/2000/svg">
<path d="M24.9306 23.3366C23.3504 23.3366 22.1431 21.927 21.8183 20.4562C21.6344 19.4756 21.8183 18.3122 22.3086 17.5155C22.615 16.9026 23.3096 16.3521 23.853 16.0456C24.9551 15.3715 26.8488 14.9425 28.4545 14.9425C28.7609 14.9425 29.1082 14.9425 29.2001 14.9425C29.384 14.8403 29.384 14.9425 29.3227 14.3296C29.2001 13.1049 28.3217 12.4298 26.7487 12.4298C25.7477 12.4298 24.5363 12.4298 23.6671 13.1652C23.4832 13.1652 23.2993 13.1652 23.2993 13.1652C23.1972 13.0631 22.6661 11.1418 22.6865 11.0805C22.7886 11.0805 23.9735 10.4676 24.5179 10.345C25.5414 10.345 26.3933 9.73218 27.5945 9.73218C28.814 9.73218 29.4024 9.73218 30.1501 10.345C31.4616 10.9579 32.2031 11.9385 32.5463 13.5932C32.6689 14.206 32.6689 14.4512 32.7302 18.1886C32.7302 20.3939 32.8323 22.2937 32.8323 22.4776C32.8323 22.4776 32.8323 22.4776 32.6485 23.0904C32.2808 23.0904 31.5944 23.0904 31.2215 23.0904C30.7925 23.0904 30.292 22.4776 29.9642 21.9873C29.6577 21.3744 29.5352 21.3744 29.3309 21.9873C29.147 21.9873 28.7078 22.6614 28.24 22.9066C27.3718 23.5194 25.9847 23.7033 24.9244 23.5194L24.9306 23.3366ZM27.7375 20.9464C28.4218 20.9464 28.9632 20.211 29.2512 19.5992C29.4351 18.9863 29.4351 18.9863 29.4351 18.1896C29.4351 16.7811 29.5372 16.9026 28.812 16.9026C27.3657 16.9026 26.1154 17.5155 25.521 17.9445C25.2145 18.5573 25.0307 18.6799 25.0307 19.2315C25.0307 20.0282 25.4597 20.7013 26.1032 20.8852C26.4709 20.8852 27.286 20.8852 27.7027 20.8852L27.7375 20.9464ZM65.0206 23.3366C63.5559 23.3366 62.5018 22.1722 62.0299 20.8239C61.9073 20.211 61.846 20.211 61.846 19.5992C61.8429 18.3122 62.1524 17.5768 62.9553 16.7811C63.5069 16.1682 64.0646 15.8618 64.8 15.5553C65.801 14.9425 67.3679 14.8812 68.5139 14.8812C68.8203 14.8812 69.1676 14.8812 69.2595 14.8812C69.4434 14.7791 69.4434 14.8812 69.3821 14.2683C69.28 13.0437 68.3913 12.3685 66.7713 12.3685C65.7908 12.3685 64.5773 12.3685 63.7193 13.1039C63.5355 13.1039 63.3516 13.1039 63.3516 13.1039C63.3516 13.1039 63.1677 12.4911 63.0452 12.1233C62.8613 11.4492 62.8 11.1428 62.8613 11.0815C62.9635 11.0815 63.9461 10.4686 64.657 10.3461C65.6927 10.3461 66.5139 9.7332 67.7029 9.7332C68.5915 9.7332 68.8857 9.83535 69.376 9.7332C71.2146 10.3461 72.2625 11.3879 72.6783 13.3501C72.7804 13.9629 72.8008 14.5748 72.8008 17.8219C72.8008 20.0282 72.903 21.9883 72.9234 22.1109C73.0256 22.1109 72.9234 22.1109 72.8213 22.7237C72.6374 22.7237 71.6701 22.7237 71.3698 22.7237C70.8182 22.7237 70.3402 22.1109 69.948 21.4367C69.8458 21.4367 69.7641 21.4367 69.7028 21.4367C69.6007 21.4367 69.4577 21.4367 69.3351 22.0496C68.8448 22.6624 67.9807 23.1527 67.1105 23.3979C66.6202 23.3979 65.4251 23.3979 64.9961 23.3979L65.0206 23.3366ZM68.1217 20.8239C68.7856 20.211 69.2555 19.9659 69.4454 19.2928C69.5476 19.2928 69.568 18.6799 69.5476 17.9445V16.9026H69.0573C68.4444 16.9026 67.5926 16.9026 67.0471 16.9026C65.851 17.5155 65.2698 17.8832 65.2086 18.8638C65.2086 19.5379 65.3311 19.9669 65.6988 20.3336C66.1278 20.9464 66.3934 20.9464 67.1574 20.9464C67.709 20.9464 67.8214 20.9464 68.1789 20.9464L68.1217 20.8239ZM87.2929 23.3366C86.5166 23.3366 85.6637 22.7237 85.2715 22.2947C84.8425 21.6819 84.5462 20.9464 84.4339 20.0282C84.4339 19.4153 84.3317 17.0252 84.3317 12.8475V6.18578H85.9252H87.5176V8.14591C87.5278 9.61676 87.5176 10.107 87.6401 10.1683C87.6401 10.1683 88.3654 10.1683 89.1539 10.1683H90.589V11.7005V13.2336H89.1539C88.3674 13.2336 87.683 13.2336 87.6401 13.2336C87.538 13.2336 87.538 13.9078 87.538 16.2969C87.538 19.2376 87.538 19.2989 87.7219 19.6053C88.0283 20.3407 88.5288 20.6461 89.5849 20.5859C89.9527 20.5859 90.2897 20.4837 90.3408 20.5859C90.4634 20.5859 90.4634 20.5859 90.4634 21.8116V23.0986H90.0344C89.1355 23.0986 87.9568 23.0986 87.2643 23.0986L87.2929 23.3366ZM5.85641 23.3366C4.95755 23.3366 4.34265 22.356 3.99945 21.1303C3.8156 20.5174 0.482676 6.79149 0.433647 6.52285H2.22932H4.02397L4.12611 7.13571C4.88197 10.9354 5.92178 16.396 6.29665 18.5461C6.41922 19.3428 6.54179 20.0169 6.60307 20.0782C6.72565 20.0782 6.84822 20.0782 6.9095 20.0782C7.09336 18.7912 7.81857 15.5441 9.13417 9.99162C9.50189 8.45948 9.78789 7.17248 9.78789 7.17248C9.78789 7.17248 10.605 7.17248 11.606 7.17248H13.4262C13.5488 7.78534 14.9767 14.4655 15.2158 15.6544C15.3996 16.4511 15.5835 17.7371 15.7673 18.5338C15.8899 19.3305 16.0125 20.066 16.0738 20.1273C16.0738 20.1273 16.2576 20.1273 16.3189 20.1273C16.3189 20.1273 16.4415 19.5144 16.564 19.0241C16.8092 17.5533 17.371 14.7351 18.2371 10.6045C18.6661 8.64334 18.9726 7.04991 18.9726 7.04991C18.9726 7.04991 19.7386 7.04991 20.6763 7.04991H22.3862C22.3862 7.04991 18.0584 23.4908 17.9849 23.7482C17.9849 23.7482 17.801 23.7482 17.4946 23.7482C15.8174 23.7482 14.7204 23.7482 14.1443 22.3999C13.8991 21.7871 13.8991 21.7871 13.0902 18.1722C12.2832 14.4961 12.0238 13.1489 11.8461 11.9037C11.6622 10.678 11.6622 10.678 11.5396 10.678C11.4171 10.678 11.4171 10.678 11.1719 12.0263C11.0494 12.6392 10.8655 13.681 10.6816 14.3552C10.1914 16.3776 8.42122 23.5889 8.3967 23.6195C8.38649 23.6195 8.15156 23.7217 7.90642 23.6195C7.2527 23.6195 6.48459 23.6195 6.07295 23.6195L5.85641 23.3366ZM35.2593 14.7831V6.32061H36.8833H38.5054V14.7648V23.214H36.8711H35.2347V14.7464L35.2593 14.7831ZM41.1897 16.9271V10.5973H42.7351H44.2795V11.4553C44.2795 12.1908 44.2897 12.3133 44.4021 12.3133C44.5042 12.3133 44.5246 12.3133 44.6472 12.3133C44.7493 12.3133 44.8923 12.3133 45.0149 11.7005C45.5665 11.0263 46.2948 10.5973 47.1221 10.4135C47.6737 10.4135 48.7523 10.4135 49.2181 10.4135C50.1884 10.4135 51.0505 11.3328 51.4734 12.1295C51.7186 12.7423 51.8411 12.7423 52.1271 12.1295C52.2497 12.1295 52.5561 11.5166 52.8115 11.394C53.7001 10.536 54.7246 10.1683 56.0055 10.1683C58.4201 10.1683 59.9145 11.7618 60.1841 14.7035C60.1841 15.3163 60.2863 17.0926 60.2863 19.2376V23.0976H58.651H57.0147V19.115C57.0147 15.255 57.0147 15.1325 56.8308 14.7035C56.5857 13.8455 56.2179 13.3562 55.648 13.0498C55.3416 13.0498 55.219 13.0498 54.7389 13.0498C54.2486 13.0559 54.1261 13.0498 53.8401 13.0498C53.2068 13.0498 52.743 13.9078 52.5102 14.5809C52.3876 15.1938 52.3876 15.255 52.3876 18.9925V23.0976H50.7523H49.1159V19.115C49.1159 15.3776 49.1088 15.1325 48.9934 14.7035C48.7482 13.8455 48.4418 13.3562 47.8289 13.0498C47.5225 13.0498 47.3999 13.0498 46.9505 13.0498C46.4602 13.0498 46.3989 13.0498 46.0108 13.0498C45.3571 13.6626 44.8413 14.0304 44.639 14.826C44.5369 15.4389 44.5165 15.8066 44.5165 19.115V23.0363H42.8801H41.2428V16.7014L41.1897 16.9271ZM75.3656 16.9271V10.6096H76.7997H78.2348V11.7127C78.2348 12.3256 78.2348 12.8782 78.2348 12.9395C78.2348 13.0416 78.337 12.9395 78.3574 12.9395C78.4595 12.9395 78.5413 12.9395 78.7251 12.3266C79.4197 10.917 80.5994 10.1816 82.009 10.1816H82.5606V11.7138V13.3082H82.009C80.3543 13.3082 79.1419 13.9823 78.719 15.4522C78.5964 16.065 78.5964 16.2489 78.5964 19.4347V23.0496H76.9345H75.2737V16.7331L75.3656 16.9271ZM25.0991 23.5756C24.997 23.5756 24.7927 23.4735 24.6088 23.5756C23.237 23.5756 22.0297 22.1047 21.7355 20.6952C21.4904 19.4705 21.8377 18.0609 22.5629 17.1416C23.5864 15.9169 25.62 15.1202 28.1256 15.0589C28.6159 15.0589 29.0755 14.9568 29.1368 15.0589C29.2594 15.0589 29.2594 15.0589 29.239 14.4461C29.1164 13.4052 28.432 12.7924 27.1859 12.6688C26.1389 12.6688 24.8764 12.6688 23.6824 13.3429C23.4372 13.3429 23.2534 13.3429 23.2534 13.3429C23.2534 13.3429 23.0695 12.7301 22.947 12.3001C22.5792 11.0743 22.518 11.1969 23.4985 10.8292C24.8397 10.2163 26.0286 10.0938 27.621 10.1551C28.5199 10.1551 28.8038 10.2572 29.3002 10.1551C30.6495 10.7679 31.6168 11.2582 32.15 12.3613C32.7016 13.5258 32.8037 14.2612 32.8037 18.5502C32.8058 20.2662 32.8037 21.7973 32.9059 22.2263C32.9059 22.8392 32.9059 22.9617 32.9059 23.023C32.8037 23.023 32.0887 23.023 31.7415 23.023C31.0162 23.023 30.4126 22.4102 29.9213 21.736C29.7987 21.736 29.6761 21.1232 29.6761 21.1232C29.6761 21.1232 29.431 21.1232 29.1246 21.736C28.6956 22.3489 28.5015 22.3489 28.0459 22.5327C27.7395 22.5327 27.2901 23.1456 27.0756 23.1456C26.7079 23.1456 25.3851 23.1456 25.1338 23.1456L25.0991 23.5756ZM27.9846 20.9403C28.5362 20.9403 28.9141 20.3275 29.1613 19.8382L29.3452 19.2253V18.1222V17.0191H28.8549C28.0071 17.0191 26.8641 17.0191 26.2329 17.6319C25.8039 17.6319 25.477 18.2448 25.2727 18.5512C24.905 19.2866 25.0276 20.2059 25.5792 20.6952C25.9469 21.308 26.2431 21.308 26.9581 21.308C27.4484 21.308 27.5914 21.308 27.9591 21.308L27.9846 20.9403ZM64.9992 23.5756C62.9706 22.9627 61.6468 21.4919 61.7817 19.4705C61.8838 18.2448 62.3945 17.2029 63.3077 16.5298C64.466 15.6105 66.1993 15.1202 68.2534 15.0589C68.7437 15.0589 69.2034 14.9568 69.2646 15.0589C69.3872 15.0589 69.3872 15.0589 69.3668 14.4461C69.3668 13.8332 69.1217 13.5268 68.7539 13.2214C67.8244 12.4247 65.7387 12.486 63.8082 13.2214C63.563 13.2214 63.3792 13.2214 63.3792 13.2214C63.3792 13.2214 63.1953 12.6085 63.0728 12.1172C62.705 10.8915 62.6437 11.0141 63.6243 10.5851C65.5181 9.84965 68.1349 9.66579 69.7406 9.97222C70.8622 10.5851 71.7753 11.0754 72.2646 12.1172C72.8774 13.2827 72.9183 13.8945 72.9183 18.1222C72.9193 20.8177 73.0204 22.2886 73.1022 22.6563C73.2043 22.6563 72.0123 23.2692 71.3821 22.6563C70.9531 22.6563 70.4117 21.9822 70.0705 21.4919C69.948 21.4919 69.8254 20.879 69.8254 20.879C69.8254 20.879 69.5803 20.879 69.2738 21.4919C68.8448 22.1047 68.6508 22.1047 68.1952 22.2886C67.8888 22.2886 67.4394 22.9015 67.2249 22.9015C66.7346 22.9015 65.5334 22.9015 65.086 22.9015L64.9992 23.5756ZM67.8367 21.0629C68.5006 21.0629 69.0011 20.3887 69.2953 19.7769C69.4791 19.1641 69.4791 19.1641 69.4791 18.3061V17.2029H68.9889C68.1411 17.2029 66.9971 17.2029 66.3658 17.8158C65.6713 18.4286 65.2811 18.7351 65.2382 19.4092C65.2382 20.2059 65.4833 20.8177 66.086 21.1242C66.4537 21.1242 66.515 21.1242 66.9848 21.1242C67.3525 21.1242 67.6079 21.1242 67.8326 21.1242L67.8367 21.0629ZM87.3204 23.5756C85.8383 23.5756 84.8823 22.4725 84.533 21.0629C84.3491 20.2662 84.2878 19.6543 84.2878 12.9579V6.26545H85.9425H87.5962V8.28686V10.3093H89.0793H90.5635V11.8414V13.3746H89.0793C88.2622 13.3746 87.5901 13.3746 87.5778 13.3746C87.5686 13.3807 87.5686 14.7219 87.5789 16.3766C87.5789 19.7463 87.5789 19.7463 88.0691 20.2366C88.4369 20.8494 88.7331 20.8494 89.5461 20.8494C89.9138 20.8494 90.2305 20.8494 90.302 20.7473C90.4246 20.7473 90.4246 20.7473 90.4246 22.0343V23.3213L90.302 23.4234C89.7504 23.4234 87.8618 24.0363 87.2244 23.4234L87.3204 23.5756ZM5.87275 23.5756C4.95347 23.5756 4.4213 22.7789 4.04746 21.6145C3.8636 21.0016 0.365211 6.70569 0.365211 6.52898C0.365211 6.52898 0.487782 6.52898 2.1854 6.52898C3.27628 6.52898 4.01682 6.52898 4.04133 6.63112C4.14347 6.63112 5.81147 15.5543 6.29052 18.3357C6.41309 19.1324 6.53566 19.8065 6.59695 19.8065C6.69909 19.8065 6.7808 19.8065 6.7808 19.1937C6.7808 19.1937 7.14852 17.1712 7.55709 15.395C8.04737 13.1284 9.62242 6.45442 9.65919 6.39313C9.6694 6.39313 10.507 6.39313 11.509 6.39313H13.3292H13.4313C13.5335 6.39313 15.1106 14.1631 15.4354 15.8301C15.5579 16.443 15.7418 17.4838 15.8644 18.1579C16.0482 19.1998 16.1095 19.5062 16.1708 19.4449C16.1708 19.4449 16.2934 18.8321 16.4159 18.1579C16.7837 16.1978 18.7509 6.45442 18.8306 6.31959C18.8306 6.31959 19.6375 6.31959 20.5956 6.31959H22.33C22.33 6.31959 17.9716 22.9188 17.9042 23.0843C17.802 23.0843 17.7816 23.0843 17.3526 23.0843C15.6427 23.0843 14.5396 23.0843 13.9512 21.736C13.7061 21.1232 13.7061 21.1232 12.9094 17.6309C12.1433 14.1386 11.8062 12.4226 11.6162 11.1111C11.4324 9.8854 11.3711 9.82411 11.1872 11.1111C11.0851 11.724 10.9421 12.4594 10.7582 13.1346C10.3292 15.0947 8.34563 23.0414 8.28435 23.1027C8.10049 23.1027 6.46416 23.1027 5.92383 23.1027L5.87275 23.5756ZM35.2153 14.9793V6.4677H36.8639H38.5115C38.5115 6.4677 38.5115 10.389 38.5115 14.9793V23.3488H36.8271H35.1418V14.8383L35.2153 14.9793ZM41.1468 17.1232V10.7444H42.7228H44.2979V11.6024C44.2979 12.2766 44.4 12.4604 44.4204 12.3991C44.4204 12.3991 44.543 12.297 44.543 12.3991C44.6656 12.3991 45.1559 11.6637 45.4112 11.4186C46.1364 10.8057 47.0108 10.5606 48.1139 10.5606C48.88 10.5606 49.3151 10.5606 49.9637 11.1734C50.5153 11.1734 51.2017 12.0927 51.4714 12.6443C51.5939 12.6443 51.6552 13.2571 51.7165 13.2571C51.7165 13.2571 51.9616 13.2571 52.1455 12.6443C52.8299 11.7863 53.8615 11.1734 54.8431 10.9283C55.4764 10.9283 56.4549 10.9283 57.0494 10.9283C58.5264 11.5411 59.5733 12.4604 59.9901 14.2377C60.2352 15.157 60.2352 16.0763 60.2352 20.0588V23.8575H58.557H56.8778V19.875C56.8778 16.3827 56.8778 15.8311 56.7552 15.4634C56.5101 14.6054 56.1117 13.9926 55.5479 13.7474C55.3027 13.7474 55.1189 13.7474 54.7001 13.7474C54.2098 13.7413 54.0872 13.7474 53.7706 13.7474C53.0556 14.3603 52.5755 14.7893 52.4407 15.6473C52.4407 15.6473 52.3386 17.5461 52.3386 19.9363V23.7962H50.6542H48.9689V19.6298C48.9689 15.586 48.9689 15.4634 48.785 15.0957C48.4173 14.0538 47.6819 13.5023 46.689 13.5636C45.7391 13.5636 44.876 14.4216 44.6002 15.4634C44.4981 16.0763 44.4776 16.444 44.4776 19.8137V23.7962H42.78H41.0814V17.4174L41.1468 17.1232ZM75.3074 17.1232V10.7444H76.7905H78.2737V11.9088C78.2737 12.5217 78.2736 13.0743 78.3758 13.1356C78.4779 13.1356 78.4984 13.1356 78.8048 12.5227C79.4789 11.1744 80.6546 10.439 82.0519 10.439C82.4809 10.439 82.6648 10.439 82.6954 10.439C82.7976 10.5412 82.7976 11.0519 82.7976 12.0324V13.5646L81.9906 13.5707C81.0203 13.5768 80.5565 13.5707 79.9988 14.1836C79.5698 14.7964 79.1613 15.0416 79.0183 15.5319C78.8344 16.1447 78.8344 17.0017 78.8344 20.3111L78.8313 23.4357H77.1021H75.3738V17.0568L75.3074 17.1232ZM108.764 29.5816C108.397 29.5816 107.917 28.9687 107.774 28.8462C107.671 28.8462 107.651 28.2333 107.651 28.2333C107.654 27.5592 108.305 20.5113 108.376 20.3704C108.499 20.3704 108.989 19.7575 109.4 19.7575C110.207 19.6554 110.748 19.7575 110.815 20.6768C110.999 22.1476 111.479 28.2517 111.449 28.4356C111.346 29.0484 110.897 29.2323 110.395 29.3549C109.904 29.3549 109.181 29.3549 108.752 29.3549L108.764 29.5816ZM25.1022 23.7595C25 23.7595 24.7957 23.6573 24.6119 23.7595C23.2401 23.7595 22.0328 22.2886 21.7386 20.879C21.4935 19.6543 21.8407 18.2448 22.566 17.3255C23.5894 16.1008 25.6231 15.3041 28.1287 15.2428C28.6189 15.2428 29.0786 15.1406 29.1399 15.2428C29.2624 15.2428 29.2624 15.2428 29.242 14.6299C29.1194 13.5881 28.4351 12.9762 27.1889 12.8537C26.142 12.8537 24.8795 12.8537 23.6854 13.5278C23.4403 13.5278 23.2564 13.5278 23.2564 13.5278C23.2564 13.5278 23.0726 12.915 22.95 12.486C22.5823 11.2602 22.521 11.3828 23.5016 11.0151C24.8427 10.4022 26.0317 10.2797 27.6241 10.341C28.5229 10.341 28.8069 10.4431 29.3033 10.341C30.6526 10.9538 31.6199 11.4441 32.1531 12.5472C32.7047 13.7117 32.8068 14.4471 32.8068 18.7361C32.8088 20.4511 32.8068 21.9832 32.9089 22.4122C32.9089 23.0251 33.0111 23.1476 32.9089 23.2089C32.8068 23.2089 32.0918 23.2089 31.7445 23.2089C31.0193 23.2089 30.4156 22.5961 29.9243 21.9219C29.8018 21.9219 29.6792 21.3091 29.6792 21.3091C29.6792 21.3091 29.434 21.3091 29.1276 21.9219C28.6986 22.5348 28.5045 22.5348 28.049 22.7186C27.7426 22.7186 27.2931 23.3315 27.0786 23.3315C26.7109 23.3315 25.3882 23.3315 25.1369 23.3315L25.1022 23.7595ZM27.9877 21.1242C28.5393 21.1242 28.9172 20.5113 29.1644 20.0221L29.3482 19.4092V18.3061V17.2029H28.858C28.0102 17.2029 26.8672 17.2029 26.236 17.8158C25.8069 17.8158 25.4801 18.4286 25.2758 18.7351C24.9081 19.4705 25.0307 20.3887 25.5822 20.879C25.95 21.4919 26.2462 21.4919 26.9612 21.4919C27.4515 21.4919 27.5945 21.4919 27.9622 21.4919L27.9877 21.1242ZM65.0022 23.7595C62.9737 23.1466 61.6499 21.6757 61.7847 19.6543C61.8869 18.4286 62.3976 17.3868 63.3107 16.7136C64.469 15.7944 66.2024 15.3041 68.2565 15.2428C68.7468 15.2428 69.2064 15.1406 69.2677 15.2428C69.3903 15.2428 69.3903 15.2428 69.3699 14.6299C69.3699 14.0171 69.1247 13.7106 68.757 13.4052C67.8275 12.6085 65.7407 12.6698 63.8112 13.4052C63.5661 13.4052 63.3822 13.4052 63.3822 13.4052C63.372 13.4052 63.1984 12.7924 63.0758 12.3011C62.7081 11.0754 62.6468 11.1979 63.6274 10.7689C65.5211 10.0335 68.138 9.84965 69.7437 10.1561C70.8652 10.7689 71.7784 11.2592 72.2676 12.3011C72.8805 13.4655 72.9214 14.0784 72.9214 18.3061C72.9224 21.0016 72.9214 22.4725 73.1052 22.8402C73.2074 22.8402 72.0154 23.453 71.3851 22.8402C70.9561 22.8402 70.4148 22.166 70.0736 21.6757C69.951 21.6757 69.8285 21.0629 69.8285 21.0629C69.8285 21.0629 69.5833 21.0629 69.2769 21.6757C68.8479 22.2886 68.6538 22.2886 68.1983 22.4725C67.8919 22.4725 67.4424 23.0853 67.2279 23.0853C66.7376 23.0853 65.5364 23.0853 65.089 23.0853L65.0022 23.7595ZM67.8398 21.2467C68.5037 21.2467 69.0042 20.5726 69.2984 19.9608C69.4822 19.3479 69.4822 19.3479 69.4822 18.4899V17.3868H68.9919C68.1441 17.3868 67.0001 17.3868 66.3689 17.9996C65.6743 18.6125 65.2841 18.9189 65.2412 19.5931C65.1391 20.3898 65.4864 21.0016 66.089 21.308C66.4567 21.308 66.518 21.308 66.9879 21.308C67.3556 21.308 67.611 21.308 67.8357 21.308L67.8398 21.2467ZM87.3235 23.7595C85.8414 23.7595 84.8854 22.6563 84.536 21.2467C84.3522 20.45 84.2909 19.8382 84.2909 13.1417V6.44931H85.9456H87.5993V8.47072V10.4931H89.0824H90.5665V12.0253V13.5574H89.0824C88.2653 13.5574 87.5932 13.5574 87.5809 13.5574C87.5717 13.5636 87.5717 14.9057 87.5819 16.5604C87.5819 19.9301 87.5819 19.9301 88.0722 20.4194C88.4399 21.0322 88.7361 21.0322 89.5492 21.0322C89.9169 21.0322 90.2336 21.0322 90.3051 20.9301C90.4276 20.9301 90.4276 20.9301 90.4276 22.2171V23.5041L90.3051 23.6062C89.7535 23.6062 87.8649 24.2191 87.2275 23.6062L87.3235 23.7595ZM5.87582 23.7595C4.95653 23.7595 4.42437 22.9627 4.05053 21.7983C3.86667 21.1855 0.368276 6.88955 0.368276 6.71182C0.368276 6.71182 0.490847 6.71182 2.18846 6.71182C3.27935 6.71182 4.01988 6.71182 4.0444 6.81396C4.14654 6.81396 5.81453 15.7372 6.29358 18.5185C6.41615 19.3152 6.53873 19.9894 6.60001 19.9894C6.70215 19.9894 6.78387 19.9894 6.78387 19.3765C6.78387 19.3765 7.15158 17.3541 7.56015 15.5778C8.05044 13.3113 9.62548 6.63623 9.66225 6.57495C9.66225 6.57495 10.51 6.57495 11.5121 6.57495H13.3322H13.4344C13.5365 6.57495 15.1136 14.346 15.4384 16.0129C15.561 16.6258 15.7449 17.6666 15.8674 18.3408C16.0513 19.3826 16.1126 19.6891 16.1739 19.6278C16.1739 19.6278 16.2964 19.0149 16.419 18.3408C16.7867 16.3807 18.754 6.63623 18.8337 6.50243C18.8337 6.50243 19.6406 6.50243 20.5987 6.50243H22.3331C22.3331 6.50243 17.9746 23.1017 17.9072 23.2671C17.8051 23.2671 17.7847 23.2671 17.3557 23.2671C15.6458 23.2671 14.5426 23.2671 13.9543 21.9188C13.7092 21.306 13.7092 21.306 12.9124 17.8137C12.1464 14.3215 11.8093 12.6055 11.6193 11.2939C11.4355 10.0682 11.3742 10.0069 11.1903 11.2939C11.0882 11.9068 10.9452 12.6422 10.7613 13.3174C10.3323 15.2775 8.3487 23.2242 8.28741 23.2855C8.10355 23.2855 6.46722 23.2855 5.92689 23.2855L5.87582 23.7595ZM35.2184 15.1631V6.65053H36.867H38.5145C38.5145 6.65053 38.5145 10.5728 38.5145 15.1631V23.5327H36.8302H35.1449V15.0222L35.2184 15.1631ZM41.1498 17.3071V10.9283H42.7259H44.3009V11.7863C44.3009 12.4604 44.3009 12.6443 44.4235 12.583C44.4235 12.583 44.5461 12.4808 44.5461 12.583C44.6686 12.583 45.1589 11.8476 45.4143 11.6024C46.1395 10.9896 47.0139 10.7444 48.117 10.7444C48.8831 10.7444 49.3182 10.7444 49.9668 11.3573C50.5184 11.3573 51.2048 12.2766 51.4744 12.8292C51.597 12.8292 51.6583 13.442 51.7196 13.442C51.7196 13.442 51.9647 13.442 52.1486 12.8292C52.8329 11.9712 53.8646 11.3573 54.8462 11.1121C55.4794 11.1121 56.458 11.1121 57.0524 11.1121C58.5294 11.725 59.5764 12.6443 59.9931 14.4216C60.2383 15.3408 60.2383 16.2601 60.2383 20.2427V24.0414H58.5601H56.8808V20.0588C56.8808 16.5666 56.8808 16.015 56.7583 15.6473C56.5131 14.7893 56.1148 14.1764 55.5509 13.9313C55.3058 13.9313 55.1219 13.9313 54.7032 13.9313C54.2129 13.9251 54.0903 13.9313 53.7737 13.9313C53.0587 14.5441 52.5786 14.9731 52.4438 15.8311C52.4438 15.8311 52.3416 17.73 52.3416 20.1201V23.9801H50.6573H48.9719V19.8137C48.9719 15.7698 48.9719 15.6473 48.7881 15.2796C48.4204 14.2377 47.6849 13.6861 46.6921 13.7474C45.7422 13.7474 44.8791 14.6054 44.6033 15.6473C44.5011 16.2601 44.4807 16.6278 44.4807 19.9975V23.9801H42.7831H41.0845L41.0947 17.6013L41.1498 17.3071ZM75.3105 17.3071V10.9283H76.7936H78.2767V12.0927C78.2767 12.7056 78.3789 13.2582 78.3789 13.3194C78.481 13.3194 78.5014 13.3194 78.8079 12.7066C79.482 11.3573 80.6577 10.6218 82.055 10.6218C82.484 10.6218 82.6678 10.6218 82.6985 10.6218C82.6985 10.724 82.8006 11.2347 82.6985 12.2153V13.7474L81.8915 13.7535C80.9212 13.7597 80.4575 13.7535 79.8998 14.3664C79.4708 14.9793 79.0622 15.2244 78.9192 15.7147C78.7353 16.3275 78.7353 17.1845 78.7353 20.4929L78.7323 23.6185H77.003H75.2747V17.2397L75.3105 17.3071ZM98.0148 23.5879C97.8309 23.4857 97.5858 23.5879 97.3509 22.975C96.452 22.117 96.1987 20.7687 96.8606 20.1569C96.9831 20.1569 98.6256 19.2376 100.58 18.3183C103.73 16.8475 104.159 16.6646 104.367 16.7259C105.245 16.7259 105.899 18.257 105.348 18.8699C105.225 18.8699 99.0434 23.3427 98.8023 23.4653C98.5572 23.4653 98.4346 23.4653 98.026 23.4653L98.0148 23.5879ZM120.349 23.5879C120.043 23.5879 113.844 19.115 113.737 18.9312C113.308 18.257 114.043 16.8475 114.877 16.8475C114.999 16.8475 116.654 17.5829 118.633 18.5022C121.47 19.7892 122.248 20.2182 122.382 20.3397C123.015 21.0751 122.484 22.7911 121.391 23.404C121.023 23.404 120.615 23.404 120.356 23.404L120.349 23.5879ZM100.498 11.774C98.1701 10.6709 96.9443 10.058 96.8095 9.93545C96.5644 9.93545 96.4418 9.32259 96.5031 8.8323C96.6052 8.03559 96.9934 7.36145 97.6185 6.93245C97.9249 6.93245 98.0475 6.93245 98.3641 6.93245C98.7318 6.93245 98.7318 6.93245 99.3038 7.5453C100.976 8.64845 105.304 11.774 105.408 11.8966C105.776 12.5094 105.306 13.49 104.693 13.8577C104.325 13.8577 104.203 13.8577 100.506 12.3256L100.498 11.774ZM114.361 13.2459C113.932 13.2459 113.605 12.3879 113.595 11.8966C113.59 11.2837 113.717 11.2837 114.207 10.9773C120.77 6.3819 120.318 6.6873 120.664 6.6873C122.115 6.6873 123.292 9.07745 122.299 9.99673C122.197 9.99673 120.572 10.8547 118.635 11.774C114.793 13.5513 114.833 13.5513 114.361 13.2459ZM109.219 10.1806C108.912 10.0784 108.606 10.1806 108.443 9.56773C108.32 9.56773 108.259 8.95487 108.014 5.76904C107.646 1.78547 107.646 1.41775 107.768 1.17261C108.381 0.00716051 110.839 0.0684463 111.403 1.17261H111.525L111.158 5.15618C110.851 8.4033 110.79 9.13873 110.667 9.32259C110.483 9.93545 109.758 9.93545 109.178 9.93545L109.219 10.1806ZM108.79 29.7348C108.422 29.7348 107.942 29.122 107.799 28.9994C107.697 28.9994 107.676 28.3865 107.676 28.3865C107.68 27.7124 108.33 20.6645 108.402 20.5236C108.524 20.5236 109.015 19.9107 109.425 19.9107C110.232 19.8086 110.773 19.9107 110.841 20.83C111.025 22.3009 111.505 28.4049 111.474 28.5888C111.372 29.2016 110.923 29.3855 110.42 29.5081C109.93 29.5081 109.207 29.5081 108.778 29.5081L108.79 29.7348ZM25.1277 23.974C25.0256 23.974 24.8213 23.8718 24.6374 23.974C24.4536 23.974 24.0246 23.974 23.7283 23.3611C22.7886 22.7482 22.0981 22.1354 21.7733 21.0935C21.6508 20.4807 21.6508 20.4807 21.6508 19.8688C21.6548 19.1947 21.6508 19.0108 21.8346 18.5818C22.3249 17.1723 23.2993 16.254 25.0266 15.6411C25.9765 15.0283 27.4106 15.0283 28.526 15.0283C28.8324 15.0283 29.1389 15.0283 29.1593 14.9261C29.2819 14.9261 29.1593 14.1907 28.9754 13.823C28.6077 13.1489 27.909 12.8424 26.7385 12.8424C25.715 12.8363 24.7651 12.8424 23.6997 13.5779C23.4546 13.5779 23.2707 13.5779 23.2095 13.5779C23.2095 13.5779 23.0256 12.965 22.8417 12.4747L22.5353 11.4329H22.6579C22.8417 11.4329 23.7978 10.82 24.5138 10.6974C25.5618 10.6974 26.3769 10.0846 27.572 10.0846C28.8528 10.0846 29.5454 10.0846 30.3676 10.6974C31.1235 11.3103 31.7946 11.8006 32.1684 12.536C32.72 13.6391 32.72 13.6391 32.7813 17.8668C32.7813 19.8893 32.8834 21.9107 32.9038 22.3397C32.9038 22.9525 33.006 23.1364 32.9038 23.1977C32.9038 23.1977 32.5361 23.1977 31.9641 23.1977C31.147 23.1915 30.5065 22.5848 29.9233 22.0332L29.5556 21.4204L29.0653 22.0332C28.1869 22.8912 27.19 23.259 25.8785 23.3202C25.5107 23.3202 25.1124 23.3202 25.0409 23.3141L25.1277 23.974ZM28.0265 21.1548C28.5168 21.1548 28.9458 20.4807 29.1664 20.0527C29.3503 19.4398 29.3503 19.4398 29.3503 18.6431V17.54L28.5434 17.5461C26.9499 17.5461 25.8468 18.159 25.43 18.8944C25.2462 19.5073 25.2462 19.5073 25.2462 19.6911C25.2462 20.304 25.3688 20.6717 25.7365 20.9771C26.0429 20.9771 26.2268 21.5899 26.6558 21.5899C27.146 21.5899 27.6261 21.5899 28.0715 21.5899L28.0265 21.1548ZM64.942 23.9127C63.4466 23.2998 62.368 22.687 61.9451 21.3387C61.3935 19.685 61.9451 17.9077 63.2321 16.8046C64.4026 15.824 66.5231 15.2121 68.6314 15.2121C68.9378 15.2121 69.2442 15.2121 69.2646 15.11C69.3872 15.11 69.3668 14.3746 69.1421 14.0069C68.7744 13.2714 68.0573 12.966 66.8439 12.966C65.8531 12.966 64.8521 12.966 63.8347 13.7015C63.5896 13.7015 63.4057 13.7015 63.3444 13.7015C63.3444 13.7015 63.1606 13.0886 62.9767 12.5983C62.6703 11.679 62.6703 11.5565 62.7316 11.4339C62.8542 11.4339 63.753 10.821 64.4108 10.7597C65.5262 10.1469 65.9665 10.1469 67.4138 10.1469C68.6824 10.153 68.8111 10.1469 69.375 10.1469C70.9745 10.7597 72.0593 11.5565 72.5802 13.0896C72.8866 13.9476 72.8866 14.253 72.9479 18.4194C72.9479 20.5634 73.0501 22.5246 73.0705 22.7084C73.0705 22.7084 73.0705 23.3213 73.0603 23.3213C72.8151 23.3213 71.8233 23.3213 71.3698 23.3213C70.8182 23.3213 70.1686 22.5246 69.8193 21.9117C69.8193 21.9117 69.6967 21.9056 69.2677 22.5246C68.8387 23.1374 68.6344 23.1374 68.1646 23.3213C67.8581 23.3213 67.4087 23.9341 67.184 23.9341C66.6324 23.9341 65.4619 23.9341 64.9593 23.9341L64.942 23.9127ZM68.1349 21.1548C68.6252 21.1548 69.044 20.4807 69.2565 20.0527C69.4403 19.4398 69.4403 19.4398 69.4403 18.5818V17.4787H68.8888C67.804 17.4787 66.7254 17.4787 66.1115 18.1528C65.4986 18.7657 65.2535 19.0721 65.3046 19.8688C65.3046 20.4817 65.611 20.971 66.1217 21.2161C66.612 21.2161 67.5078 21.2161 68.1084 21.114L68.1349 21.1548ZM87.2428 23.9127C85.8772 23.9127 85.0253 22.9321 84.6269 21.7677C84.3205 20.7871 84.3205 20.971 84.3205 13.5268V6.57699H85.963C87.2857 6.57699 87.6228 6.57699 87.6779 6.57699C87.6779 6.67913 87.7801 7.25113 87.7801 8.59942V10.5606H89.2632H90.7473V12.154V13.7474H89.2632H87.7801V16.5666C87.7801 19.6298 87.7842 19.875 88.1478 20.3642C88.3929 20.9771 88.6994 20.9771 89.4593 20.9771C89.827 20.9771 90.2356 20.9771 90.3888 20.9771H90.6952V22.3254V23.6737H90.5114C89.7351 23.6737 88.0222 24.2865 87.3174 23.6737L87.2428 23.9127ZM6.0229 23.9127C5.53262 23.9127 5.07297 23.2998 4.76042 23.2385C4.27013 22.6257 4.07606 22.1967 3.63378 20.4807C2.44484 15.7024 0.318226 6.84665 0.348869 6.76085C0.348869 6.76085 0.594011 6.76085 2.20582 6.76085C3.63991 6.76085 4.03725 6.76085 4.0924 6.76085C4.19455 6.76085 5.67357 14.5012 6.17612 17.3623C6.35997 18.4654 6.54383 19.446 6.54383 19.5685C6.54383 19.5685 6.64598 19.5685 6.6664 19.5685C6.6664 19.5685 6.78898 18.9557 6.85026 18.7718C7.15669 16.9945 9.5407 6.67505 9.66327 6.52898C9.76542 6.42684 10.1536 6.52898 11.5253 6.52898C12.5161 6.53511 13.3578 6.52898 13.4007 6.52898C13.5233 6.52898 15.4354 15.7208 15.8572 18.208C15.9798 18.8821 16.1024 19.495 16.1024 19.495C16.2045 19.495 16.2045 19.495 16.3475 18.4531C16.7765 16.064 18.7009 6.69956 18.7989 6.57699C18.7989 6.47485 19.2892 6.57699 20.5885 6.57699C22.0961 6.57699 22.3167 6.57699 22.3474 6.57699C22.3474 6.57699 18.0073 23.3672 17.8848 23.5695C17.7826 23.5695 17.5783 23.5695 16.7765 23.5695C15.3741 23.5695 14.3874 22.9566 13.8665 22.0986C13.6213 21.4858 13.6213 21.4858 12.8062 17.8096C12.0095 14.1335 11.7398 12.7863 11.556 11.5289C11.4538 10.916 11.3721 10.6096 11.3721 10.6096C11.3721 10.6096 11.3721 10.6096 11.3721 10.7117C11.3721 10.7117 11.0044 12.8578 10.7593 13.6534C10.3916 15.3082 8.37628 23.3897 8.34563 23.4203C8.34563 23.4203 8.10049 23.4203 7.85535 23.4203C7.30378 23.4203 6.45803 23.4203 6.05865 23.4203L6.0229 23.9127ZM35.198 23.9127C35.198 23.9127 35.198 19.9914 35.198 15.3408V6.84665H36.8649C38.3767 6.84665 38.536 6.84052 38.6095 6.84665C38.7117 6.84665 38.7117 8.74651 38.7117 15.3408C38.7117 19.9363 38.7117 23.7656 38.7117 23.8207C38.7117 23.8207 38.4665 23.8207 36.9793 23.8207C35.6801 23.8207 35.2817 23.8207 35.2572 23.8207L35.198 23.9127ZM41.1406 23.9127C41.1406 23.9127 41.1406 21.0322 41.1406 17.4971C41.1406 11.7372 41.1498 11.1121 41.2632 11.0815C41.3858 11.0815 44.2795 11.0815 44.4021 11.0815C44.5042 11.0815 44.5246 11.0815 44.5246 11.9395C44.5246 12.5523 44.5246 12.7362 44.6268 12.7362C44.6268 12.7362 44.8106 12.7362 44.9332 12.1233C45.4848 11.3879 46.3969 10.7751 47.3162 10.5912C47.9495 10.5912 49.1793 10.5912 49.6634 10.5912C50.5623 11.2041 51.2691 11.4492 51.7104 12.2459C51.833 12.2459 51.9555 12.8588 52.0168 12.8588C52.0168 12.8588 52.1189 12.7566 52.1394 12.8588C52.3232 12.8588 52.9565 11.9395 53.3283 11.6933C53.8186 11.0805 54.5122 11.0192 55.1066 10.8966C55.7603 10.8966 56.9207 10.8966 57.4968 10.8966C58.5999 11.5095 59.4937 12.1223 59.9656 13.2265C60.4558 14.4512 60.5171 15.1866 60.5171 20.0578V23.8565H58.7899H57.0616V19.8127C57.0616 16.3204 57.0616 15.7688 56.9391 15.4011C56.6326 14.1141 55.8788 13.5625 54.8002 13.6238C53.7512 13.6238 52.9484 14.4818 52.7584 15.6463C52.7584 15.6463 52.6562 17.5451 52.6562 19.9352V23.8565H50.9351C49.4214 23.8565 49.2069 23.8565 49.1762 23.8565C49.1762 23.7544 49.1762 22.0179 49.1762 19.8739C49.1762 17.7289 49.1762 15.8301 49.0741 15.6463C48.8902 14.727 48.3591 13.9915 47.6829 13.8077C46.7534 13.8077 45.8198 13.8077 45.2437 14.7883C44.8147 15.4624 44.8147 15.4011 44.8147 19.7514V23.9178H43.111C42.1713 23.9178 41.3878 23.9178 41.3633 23.9178L41.1406 23.9127ZM75.3003 23.9127C75.3003 23.9127 75.3003 21.0322 75.3003 17.5277C75.3003 12.1969 75.3105 11.1734 75.4024 11.1121C75.5046 11.1121 75.954 11.1121 76.9591 11.01H78.4371V12.1744C78.4371 13.0324 78.4371 13.3399 78.5596 13.3399C78.5596 13.3399 78.7435 13.3399 78.8661 12.727C79.0499 12.1142 79.2338 12.1142 79.6117 11.7464C80.388 10.9497 81.1377 10.6433 82.1918 10.6433C82.6208 10.6433 82.7434 10.6433 82.8251 10.6433C82.9273 10.6433 82.9477 11.2562 82.9477 12.2367C82.9467 13.0947 82.9477 13.7689 82.8456 13.8302C82.8456 13.9323 82.6617 13.8302 82.2123 13.8302C80.6066 13.8302 79.4738 14.443 79.0509 15.8526C78.9284 16.4654 78.9284 16.4654 78.9284 19.9577V23.6338H77.1807C76.2206 23.6338 75.4157 23.6338 75.3973 23.6338L75.3003 23.9127ZM98.0403 23.9127C97.8565 23.8105 97.6113 23.9127 97.3764 23.2998C96.4775 22.4418 96.2242 21.0935 96.8861 20.4807C97.0087 20.4807 98.6511 19.5614 100.605 18.6431C103.756 17.1723 104.185 16.9884 104.394 17.0497C105.272 17.0497 105.926 18.5818 105.374 19.1947C105.252 19.1947 99.0689 23.6675 98.8279 23.7901C98.5827 23.7901 98.4601 23.7901 98.0516 23.7901L98.0403 23.9127ZM120.375 23.9127C120.068 23.9127 113.869 19.4398 113.762 19.256C113.333 18.5818 114.069 17.1723 114.902 17.1723C115.025 17.1723 116.679 17.9077 118.659 18.827C121.495 20.114 122.274 20.542 122.409 20.6645C123.042 21.4 122.511 23.116 121.418 23.7288C121.05 23.7288 120.641 23.7288 120.383 23.7288L120.375 23.9127ZM100.523 12.0988C98.1956 10.9957 96.9699 10.3828 96.835 10.2603C96.5899 10.2603 96.4673 9.6474 96.5286 9.15712C96.6308 8.3604 97.0189 7.68626 97.644 7.25726C97.9504 7.25726 98.073 7.25726 98.3897 7.25726C98.7574 7.25726 98.7574 7.25726 99.3294 7.87012C101.001 8.97326 105.329 12.0988 105.433 12.2214C105.801 12.8343 105.331 13.8148 104.718 14.1825C104.351 14.1825 104.228 14.1825 100.532 12.6504L100.523 12.0988ZM114.386 13.5697C113.957 13.5697 113.63 12.7117 113.62 12.2214C113.616 11.6085 113.743 11.6085 114.233 11.3021C120.797 6.70569 120.343 7.01212 120.689 7.01212C122.141 7.01212 123.318 9.40226 122.325 10.3215C122.223 10.3215 120.598 11.1795 118.661 12.0988C114.818 13.8761 114.858 13.8761 114.386 13.5697ZM109.245 10.5054C108.939 10.4033 108.633 10.5054 108.469 9.89255C108.347 9.89255 108.285 9.27969 108.04 6.09385C107.672 2.11028 107.672 1.74257 107.795 1.49742C108.408 0.331973 110.864 0.393258 111.428 1.49742H111.551L111.183 5.481C110.877 8.72812 110.815 9.46355 110.693 9.6474C110.509 10.2603 109.784 10.2603 109.204 10.2603L109.245 10.5054ZM108.755 30.1148C108.204 30.1148 107.726 29.5019 107.615 29.1342C107.615 29.1342 107.615 27.8472 107.86 25.1517C108.044 23.0669 108.228 21.2896 108.228 21.1671C108.33 21.1671 108.657 20.5542 109.015 20.4316C109.444 20.4316 110.026 20.3295 110.357 20.4316C110.847 20.4316 110.786 20.4316 111.184 24.7227C111.368 26.8064 111.49 28.5827 111.49 28.7665C111.49 29.3794 111 29.8084 110.302 30.0535C109.934 30.0535 109.082 30.0535 108.69 30.0474L108.755 30.1148ZM25.1073 24.2926C25.0051 24.2926 24.8008 24.1905 24.617 24.2926C24.4331 24.2926 24.0041 24.2926 23.7079 23.6798C22.7682 23.0669 22.0777 22.4541 21.7529 21.4122C21.6303 20.7994 21.6303 20.7994 21.6303 20.1875C21.6344 19.5134 21.6303 19.3295 21.8142 18.9005C22.3045 17.491 23.2789 16.5727 25.0062 15.9598C25.9561 15.347 27.3902 15.347 28.5056 15.347C28.812 15.347 29.1194 15.3449 29.1399 15.2428C29.2624 15.2428 29.241 14.5094 28.955 14.1417C28.5873 13.4675 27.8886 13.1611 26.7181 13.1611C25.6946 13.155 24.7447 13.1611 23.6793 13.8965C23.4342 13.8965 23.2503 13.8965 23.189 13.8965C23.189 13.8965 23.0052 13.2837 22.8213 12.7944L22.5149 11.7515H22.6375C22.8213 11.7515 23.7774 11.1387 24.4934 11.0161C25.5414 11.0161 26.3565 10.4033 27.5516 10.4033C28.8324 10.4033 29.525 10.4033 30.3472 11.0161C31.1031 11.629 31.7741 12.1193 32.148 12.8557C32.6996 13.9578 32.6996 13.9578 32.7608 18.1855C32.7608 20.208 32.863 22.2294 32.8834 22.6584C32.8834 23.2712 32.9855 23.4551 32.8834 23.5164C32.8834 23.5164 32.5157 23.5164 31.9437 23.5164C31.1266 23.5102 30.4861 22.9035 29.9029 22.3519L29.5352 21.7391L29.0449 22.3519C28.1665 23.2099 27.1695 23.5776 25.858 23.6389C25.4903 23.6389 25.092 23.6389 25.0205 23.6328L25.1073 24.2926ZM28.0061 21.4735C28.4964 21.4735 28.9254 20.7994 29.146 20.3704C29.3299 19.7575 29.3299 19.7575 29.3299 18.9618V17.8587L28.5229 17.8648C26.9295 17.8648 25.8264 18.4777 25.4096 19.2131C25.2258 19.8259 25.2258 19.8259 25.2258 20.0098C25.2258 20.6227 25.3483 20.9904 25.716 21.2958C26.0225 21.2958 26.2063 21.9086 26.6353 21.9086C27.1256 21.9086 27.6057 21.9086 28.051 21.9086L28.0061 21.4735ZM64.9215 24.2314C63.4262 23.6185 62.3475 23.0056 61.9247 21.6574C61.3731 20.0037 61.9144 18.2264 63.2117 17.1232C64.3822 16.1427 66.5017 15.5308 68.6099 15.5308C68.9163 15.5308 69.2228 15.5308 69.2432 15.4287C69.3658 15.4287 69.3453 14.6933 69.1206 14.3255C68.7529 13.5901 68.0369 13.2847 66.8234 13.2847C65.8326 13.2847 64.8316 13.2847 63.8143 14.0201C63.5692 14.0201 63.3853 14.0201 63.324 14.0201C63.324 14.0201 63.1402 13.4073 62.9563 12.918C62.6499 11.9987 62.6499 11.8751 62.7112 11.7526C62.8337 11.7526 63.7326 11.1397 64.3904 11.0784C65.5058 10.4656 65.946 10.4656 67.3924 10.4656C68.661 10.4717 68.7897 10.4656 69.3535 10.4656C70.9531 11.0784 72.0378 11.8751 72.5588 13.4083C72.8652 14.2663 72.8652 14.5717 72.9265 18.7381C72.9265 20.8821 73.0286 22.8432 73.049 23.0271V23.64C72.8039 23.64 71.8121 23.64 71.3586 23.64C70.807 23.64 70.1574 22.8432 69.8081 22.2304C69.8081 22.2304 69.6855 22.2243 69.2565 22.8432C68.8275 23.4561 68.6232 23.4561 68.1533 23.64C67.8469 23.64 67.3975 24.2528 67.1728 24.2528C66.6212 24.2528 65.4517 24.2528 64.9491 24.2528L64.9215 24.2314ZM68.1135 21.4735C68.6038 21.4735 69.0226 20.7994 69.235 20.3704C69.4189 19.7575 69.4189 19.7575 69.4189 18.9005V17.7974H68.8673C67.7826 17.7974 66.7039 17.7974 66.09 18.4715C65.4772 19.0844 65.232 19.3908 65.2831 20.1875C65.2831 20.8004 65.5895 21.2896 66.1003 21.5348C66.5905 21.5348 67.4863 21.5348 68.0869 21.4326L68.1135 21.4735ZM87.2224 24.2314C85.8567 24.2314 85.0049 23.2508 84.6065 22.0864C84.3001 21.1058 84.3001 21.2896 84.3001 13.8455V6.89567H85.9425C87.2653 6.89567 87.6023 6.89567 87.6575 6.89567C87.6575 6.99782 87.7597 7.56982 87.7597 8.9181V10.8792H89.2418H90.7259V12.4727V14.0661H89.2418H87.7597V16.8842C87.7597 19.9485 87.7627 20.1937 88.1274 20.6829C88.3725 21.2958 88.6789 21.2958 89.4379 21.2958C89.8056 21.2958 90.2141 21.2958 90.3674 21.2958H90.6738V22.6441V23.9923H90.4899C89.7137 23.9923 88.0017 24.6052 87.297 23.9923L87.2224 24.2314ZM6.00145 24.2314C5.51117 24.2314 5.05152 23.6185 4.73897 23.5572C4.24868 22.9444 4.05461 22.5154 3.61335 20.7994C2.42441 16.0211 0.297797 7.16533 0.328439 7.07953C0.328439 7.07953 0.573582 7.07953 2.1854 7.07953C3.61948 7.07953 4.01682 7.07953 4.07197 7.07953C4.17412 7.07953 5.65212 14.8199 6.15467 17.6809C6.33852 18.7841 6.52238 19.7647 6.52238 19.8872C6.52238 19.8872 6.62453 19.8872 6.64495 19.8872C6.64495 19.8872 6.76752 19.2744 6.82881 19.0905C7.13524 17.3132 9.51925 6.99373 9.64182 6.84665C9.64182 6.7445 10.1321 6.84665 11.5039 6.84665C12.4947 6.85278 13.3363 6.84665 13.3792 6.84665C13.5018 6.84665 15.4139 16.0395 15.8368 18.5267C15.9594 19.2008 16.0819 19.8137 16.0819 19.8137C16.1841 19.8137 16.1841 19.8137 16.3271 18.7718C16.7561 16.3827 18.6804 7.01824 18.7785 6.89567C18.7785 6.79353 19.2688 6.89567 20.568 6.89567C22.0757 6.89567 22.2963 6.89567 22.3269 6.89567C22.3269 6.89567 17.9869 23.6859 17.8643 23.8882C17.7622 23.8882 17.5579 23.8882 16.7561 23.8882C15.3526 23.8882 14.3659 23.2753 13.845 22.4173C13.5999 21.8044 13.5999 21.8044 12.7848 18.1283C11.988 14.4522 11.7184 13.1049 11.5345 11.8476C11.4324 11.2347 11.3507 10.9283 11.3507 10.9283C11.3507 10.9283 11.2485 10.9283 11.2485 11.0304C11.2485 11.0304 10.8808 13.1764 10.6357 13.9721C10.268 15.6268 8.25268 23.7084 8.22204 23.739C8.22204 23.739 7.9769 23.739 7.73175 23.739C7.18018 23.739 6.33444 23.739 5.93506 23.739L6.00145 24.2314ZM35.1765 24.2314C35.1765 24.2314 35.1765 20.3101 35.1765 15.6595V7.16533H36.8435C38.3562 7.16533 38.5156 7.1592 38.5891 7.16533C38.6912 7.16533 38.6912 9.06519 38.6912 15.6595C38.6912 20.2549 38.6912 24.0843 38.6912 24.1394C38.6912 24.1394 38.4461 24.1394 36.9579 24.1394C35.6586 24.1394 35.2603 24.1394 35.2358 24.1394L35.1765 24.2314ZM41.1202 24.2314C41.1202 24.2314 41.1202 21.3509 41.1202 17.8158C41.1202 12.0559 41.1294 11.4308 41.2428 11.4002C41.3653 11.4002 44.2591 11.4002 44.3816 11.4002C44.4838 11.4002 44.5042 11.4002 44.5042 12.2582C44.5042 12.871 44.5042 13.0549 44.6063 13.0549C44.6063 13.0549 44.7902 13.0549 44.9128 12.442C45.4643 11.7066 46.3765 11.0937 47.2958 10.9099C47.9291 10.9099 49.1588 10.9099 49.643 10.9099C50.5419 11.5227 51.2487 11.7679 51.6899 12.5646C51.8125 12.5646 51.9351 13.1775 51.9964 13.1775C51.9964 13.1775 52.0985 13.0753 52.1189 13.1775C52.3028 13.1775 52.9361 12.2582 53.3079 12.012C53.7982 11.3992 54.4917 11.3379 55.0862 11.2153C55.7399 11.2153 56.8992 11.2153 57.4753 11.2153C58.5785 11.8282 59.4722 12.441 59.9441 13.5442C60.4344 14.7699 60.4957 15.5053 60.4957 20.3755V24.1752H58.7684H57.0402V20.1313C57.0402 16.6391 56.938 16.0875 56.9176 15.7198C56.6112 14.4328 55.8574 13.8812 54.7798 13.9425C53.7308 13.9425 52.9279 14.8005 52.7379 15.9649C52.7379 15.9649 52.6358 17.8638 52.6358 20.2539V24.1752H50.9147C49.4009 24.1752 49.1864 24.1752 49.1558 24.1752C49.1558 24.073 49.1558 22.3366 49.1558 20.1926C49.1558 18.0476 49.1558 16.1488 49.0536 15.9649C48.8698 15.0457 48.3386 14.3102 47.6625 14.1264C46.733 14.1264 45.7994 14.1264 45.2233 15.1069C44.7943 15.7811 44.7943 15.7198 44.7943 20.0701V24.2365H43.0905C42.1508 24.2365 41.3674 24.2365 41.3429 24.2365L41.1202 24.2314ZM75.2798 24.2314C75.2798 24.2314 75.2798 21.3509 75.2798 17.8464C75.2798 12.5156 75.2901 11.4921 75.382 11.4308C75.4841 11.4308 75.9336 11.4308 76.9386 11.3287H78.4156V12.4931C78.4258 13.3511 78.4156 13.6575 78.5382 13.6575C78.5382 13.6575 78.7221 13.6575 78.8446 13.0447C79.0285 12.4318 79.2123 12.4318 79.5903 12.0641C80.3666 11.2674 81.1163 10.961 82.1704 10.961C82.5994 10.961 82.722 10.961 82.8037 10.961C82.9058 10.961 82.9263 11.5738 82.9263 12.5544C82.9263 13.4124 82.9263 14.0865 82.8241 14.1478C82.8241 14.25 82.6403 14.1478 82.1908 14.1478C80.5851 14.1478 79.4524 14.7607 79.0295 16.1702C78.9069 16.7831 78.9069 16.7831 78.9069 20.2754V23.9515H77.1603C76.2001 23.9515 75.3953 23.9515 75.3769 23.9515L75.2798 24.2314ZM98.0138 24.2314C97.5235 24.2314 97.0945 23.6185 96.7513 23.0669C96.3836 22.3928 96.3223 21.4735 96.6287 20.9832C96.8126 20.9832 96.9964 20.3704 100.421 19.0231C102.8 17.92 104.106 17.3684 104.24 17.3684C104.669 17.3623 105.19 17.9812 105.435 18.349C105.619 18.9618 105.619 19.2682 105.446 19.5134C105.323 19.5134 99.1608 24.0475 98.8289 24.2314C98.5837 24.2314 98.2773 24.2314 97.9913 24.2314H98.0138ZM120.335 24.2314C120.233 24.2314 118.729 23.1895 116.958 21.9025C114.422 20.1262 113.711 19.5747 113.638 19.4521C113.27 18.7167 113.944 17.491 114.79 17.4297C115.035 17.4297 115.341 17.4297 118.264 18.9005C120.029 19.6972 121.639 20.4929 121.848 20.5542C122.461 20.5542 122.655 21.1671 122.716 21.6574C122.818 22.3315 122.471 23.1895 121.838 23.7411C121.286 24.3539 120.772 24.4152 120.331 24.3539L120.335 24.2314ZM103.778 13.9374C102.165 13.2633 96.9188 10.7505 96.783 10.628C96.1701 10.0151 96.3539 8.72812 97.1507 7.87012C97.5797 7.25726 97.9882 7.19598 98.4499 7.19598H98.8176L102.083 9.46354C105.099 11.5473 105.357 11.7924 105.498 12.0375C105.62 12.0375 105.62 12.6504 105.6 12.7117C105.498 13.3245 105.171 13.6923 104.834 13.8751C104.405 13.8751 104.221 13.8751 103.798 13.8751L103.778 13.9374ZM114.597 13.9374C113.82 13.9374 113.291 12.4665 113.657 11.8537C113.759 11.8537 114.851 10.9344 116.947 9.46354C118.694 8.23783 120.183 7.19598 120.256 7.19598C120.44 7.19598 121.012 7.19598 121.291 7.19598C121.72 7.19598 122.159 7.87012 122.449 8.42169C122.695 9.03455 122.695 9.03454 122.695 9.46354C122.695 10.0764 122.695 10.0764 122.572 10.199C122.388 10.8118 122.266 10.8118 121.414 10.9957C116.641 13.203 115.144 13.8761 114.989 13.9374C114.866 13.9374 114.682 13.9435 114.621 13.9374H114.597ZM109.185 10.7505C108.634 10.7505 108.307 10.1377 108.245 9.89255C108.245 9.89255 108.062 7.99269 107.878 5.91C107.51 1.98771 107.51 1.98771 107.776 1.61999C108.021 1.00714 108.866 0.884566 109.504 0.884566C110.474 0.884566 111.391 1.49743 111.508 2.049C111.508 2.049 111.018 8.83843 110.875 9.91093C110.875 10.5238 110.629 10.5238 110.262 10.6464C109.955 10.6464 109.414 10.6464 109.152 10.6464L109.185 10.7505ZM108.756 30.2864C108.205 30.2864 107.727 29.6735 107.616 29.3058C107.616 29.3058 107.616 28.0188 107.861 25.3233C108.045 23.2385 108.229 21.4612 108.229 21.3387C108.331 21.3387 108.658 20.7258 109.016 20.6032C109.445 20.6032 110.027 20.5011 110.358 20.6032C110.848 20.6032 110.787 20.6032 111.185 24.8943C111.369 26.978 111.492 28.7542 111.492 28.9381C111.492 29.551 111.001 29.98 110.303 30.2251C109.935 30.2251 109.083 30.2251 108.691 30.219L108.756 30.2864ZM24.7682 24.4642C22.8632 23.8514 21.5517 22.5031 21.5578 20.542C21.5619 18.5818 22.6732 17.111 24.7375 16.3153C25.7181 15.7024 26.809 15.7024 28.6169 15.6411H29.1685C29.1685 14.967 28.7395 14.3541 28.1082 14.109C27.7405 14.109 27.6179 14.109 26.9744 14.109C25.8223 14.109 24.7804 14.109 23.7764 14.7831C23.3474 14.7831 23.2861 14.7831 23.2248 14.7831C23.1022 14.7831 22.5098 12.5156 22.5609 12.4543C22.6834 12.4543 24.2278 11.6576 25.238 11.4737C26.0143 11.4737 27.9162 11.4737 28.6578 11.4737C30.5525 11.4737 31.912 12.7617 32.5188 14.3541C32.8865 15.396 32.9478 15.5186 32.9478 19.9301C32.9478 22.1354 33.0499 24.0965 33.0703 24.2804C33.0703 24.2804 33.0805 24.8932 32.9478 24.8932C32.9478 24.8932 32.7026 24.8932 32.5188 24.8932C31.528 24.8932 30.5341 24.2804 29.908 23.6665C29.7854 23.6665 29.7241 23.6665 29.7241 23.6665C29.7139 23.6665 29.479 23.6665 29.2338 24.2794C28.7436 24.8922 28.2431 25.0761 27.6833 25.2599C26.8151 25.8728 25.6609 25.8728 24.7906 25.2599L24.7682 24.4642ZM27.9305 21.6451C28.4208 21.6451 28.8396 21.0322 29.0643 20.542C29.2481 19.9291 29.2481 19.9291 29.2481 19.1334V18.0916H28.4821C26.4106 18.0916 25.3075 18.8883 25.2339 20.0527C25.1318 20.9107 25.4791 21.4612 26.1736 21.7064C26.5414 21.7064 27.4484 21.7064 27.8835 21.7064L27.9305 21.6451ZM64.8572 24.4642C62.6203 23.8514 61.272 21.9515 61.7439 19.6237C62.1116 17.7238 63.6682 16.4379 66.23 15.8863C66.7816 15.8863 67.6028 15.8863 68.7059 15.8863H69.2575C69.2575 15.2734 69.0736 15.0283 68.7672 14.7219C68.2769 14.109 67.9909 14.109 66.7816 14.109C65.9133 14.109 65.7152 14.109 65.1881 14.109C64.8817 14.109 64.3199 14.109 63.9869 14.7219C63.4966 14.7219 63.3741 14.7219 63.323 14.7219C63.2004 14.7219 62.5978 12.4543 62.6489 12.393C62.7714 12.393 64.2607 11.6576 65.3025 11.4124C66.089 11.4124 67.9746 11.4124 68.7407 11.4124C69.425 11.4124 70.2851 12.0253 70.7386 12.0866C71.9582 12.822 72.5404 13.7413 72.9377 15.5186C72.9377 15.5186 73.0398 17.4174 73.0603 19.8076C73.0603 22.0128 73.1624 23.974 73.1828 24.2191C73.285 24.832 73.1828 24.832 72.6313 24.832C71.6078 24.832 70.713 24.832 70.0328 23.6052C69.9102 23.6052 69.7876 22.9924 69.7876 22.9924C69.7774 22.9924 69.6038 22.9924 69.3586 23.6052C68.4087 24.5245 67.2136 24.9545 65.8275 24.9545C65.5211 24.9545 65.1228 24.9545 64.898 24.9545L64.8572 24.4642ZM68.0195 21.6451C68.5098 21.6451 68.949 20.971 69.1656 20.542C69.3494 19.9291 69.3494 19.9291 69.3494 19.1334V18.0303H68.5834C66.3709 18.0303 65.2494 18.8883 65.3291 20.2978C65.3291 21.0333 65.6968 21.4612 66.2892 21.7064C66.6569 21.7064 67.5578 21.7064 67.9868 21.7064L68.0195 21.6451ZM87.1243 24.4642C86.8792 24.3621 86.4604 24.4642 86.1846 23.8514C85.2449 23.2385 84.6831 22.6257 84.3706 21.4612L84.248 20.8484V13.7719V6.69956H85.9395C87.1335 6.69956 87.6544 6.69956 87.7157 6.69956C87.8179 6.8017 87.8179 7.31242 87.8179 8.72199V10.6831H89.3H90.7841C90.7841 10.6831 90.7841 11.5411 90.7841 12.3378V13.87H89.3H87.8179V16.5666C87.8179 19.3847 87.8312 19.7463 88.0691 20.2366C88.1917 20.2366 88.492 20.8555 88.7882 20.8555C89.0947 20.8555 89.7177 20.8555 90.2111 20.8494C90.5175 20.7473 90.6401 20.7473 90.6401 20.8494C90.6401 20.8494 90.7422 21.5236 90.7422 22.259C90.7422 23.3008 90.7422 23.6073 90.6401 23.6686C90.3337 23.6686 87.9915 24.2814 87.1764 23.6686L87.1243 24.4642ZM5.85028 24.4642C4.89014 24.4642 4.2875 23.545 3.89527 22.3192C3.7727 21.7064 2.71347 17.6013 0.488804 8.45233C0.304946 7.59433 0.182376 7.16533 0.243661 7.16533C0.366233 7.16533 4.01784 7.16533 4.10977 7.16533C4.21191 7.16533 5.7461 15.1876 6.31707 18.447C6.43965 19.305 6.6235 20.0404 6.6235 20.0404C6.63372 20.0404 6.74607 19.4276 6.80736 19.1824C7.17507 17.2826 9.46716 7.30016 9.57747 7.16533C9.70005 7.16533 13.3455 7.16533 13.4497 7.17146C13.5723 7.17146 15.5028 16.4991 15.9011 18.876C16.0237 19.4889 16.085 19.8566 16.085 19.7953C16.085 19.7953 16.1871 19.7953 16.1871 19.1824C16.371 17.8954 18.6018 7.06727 18.706 6.93857C18.8081 6.93857 22.2912 6.93857 22.3831 6.93857C22.3831 7.04072 21.8316 9.32872 20.2014 15.5308C18.9634 20.1875 17.9328 24.0659 17.9144 24.0965C17.7918 24.0965 16.3281 24.7094 15.6969 24.0965C14.655 24.0965 13.8889 23.1772 13.5335 22.0741C13.4109 21.4612 12.0626 15.4941 11.7746 14.0171C11.652 13.4042 11.5294 12.7311 11.4681 12.3011C11.366 11.6882 11.3456 11.5044 11.3456 11.5044C11.3456 11.5044 11.2434 11.5044 11.223 12.1172C11.0391 13.2214 10.794 14.0784 9.64285 18.925C8.99935 21.5593 8.44165 23.7656 8.39262 23.8882C8.29047 23.8882 8.27005 23.8882 7.84105 23.8882C7.22819 23.8882 6.2231 23.8882 5.85437 23.8882L5.85028 24.4642ZM35.1224 24.4642C35.1224 24.4642 35.1224 20.542 35.1224 15.8556C35.1224 8.09687 35.1316 7.28178 35.245 7.245C35.245 7.245 36.0825 7.245 36.9916 7.245C38.1918 7.245 38.6637 7.245 38.7127 7.245C38.8148 7.34715 38.8148 9.26743 38.8148 15.8005C38.8148 20.4562 38.8148 24.3172 38.8148 24.3723C38.8148 24.3723 38.5697 24.3723 37.0324 24.3723C36.0723 24.3723 35.2736 24.3723 35.249 24.3723L35.1224 24.4642ZM41.0538 24.4642C41.0538 24.4642 41.0538 21.5225 41.0538 18.0241C41.0538 13.1233 41.0538 11.6024 41.156 11.5473C41.2785 11.5473 44.3806 11.5473 44.4725 11.5534C44.4725 11.5534 44.5747 12.1662 44.5747 12.3501V13.0855L44.8811 12.4727C45.4327 11.7985 46.2345 11.3082 47.1293 11.0631C47.6808 11.0631 48.7779 11.0631 49.311 11.057C50.261 11.057 51.2048 11.9763 51.6583 12.774C51.7809 12.774 51.9034 13.3869 51.9034 13.3869C51.9034 13.3869 52.0873 13.3869 52.2711 12.774C52.8227 12.0999 53.6562 11.486 54.5214 11.2408C55.2057 11.2408 56.4335 11.2408 57.1137 11.2408C59.0616 11.8537 60.2015 13.3256 60.4467 15.8373C60.4467 16.4501 60.5488 18.0425 60.5488 20.4316V24.3539H58.7603H56.9707V20.3101C56.9707 17.7974 56.8686 16.205 56.8482 16.0211C56.603 15.1018 56.2966 14.6115 55.7573 14.3051C55.0729 13.6923 54.1444 14.3051 53.5193 14.3051C53.2742 14.3051 52.9678 14.9793 52.835 15.347C52.7124 15.347 52.7124 16.1437 52.7124 19.8198V23.9862H50.9545C49.5879 23.9862 49.1895 23.9862 49.1466 23.8841C49.1466 23.8841 49.0444 22.0455 49.0444 19.8402C49.0424 15.5513 49.0342 15.3674 48.738 14.7545C48.4929 14.1417 48.309 14.0804 47.9311 13.8965C47.5021 13.8965 46.7728 13.8965 46.2764 13.8904C45.7861 13.8904 45.3979 14.5646 45.1242 15.1161L44.8791 15.729V19.8954V24.0618H43.114C42.1437 24.0618 41.3296 24.0618 41.3051 24.0618L41.0538 24.4642ZM75.2134 24.4642C75.2134 24.4642 75.2134 21.5225 75.2134 18.0241C75.2134 13.1233 75.2134 11.6024 75.3156 11.5473C75.3156 11.4451 75.8059 11.5473 76.8539 11.5473C77.6608 11.5473 78.3625 11.5473 78.4177 11.5473C78.5198 11.5473 78.5402 11.5473 78.5402 12.6504C78.5402 13.2633 78.5402 13.6923 78.6424 13.6923C78.6424 13.6923 78.8262 13.6923 78.9488 13.0794C79.3778 12.2214 80.3512 11.4237 81.3012 11.1785C81.7915 11.1785 82.8272 11.1785 82.962 11.1785C83.0641 11.1785 83.0846 11.7914 83.0846 12.8955C83.0846 14.1815 83.0846 14.488 82.9824 14.5492C82.8803 14.5492 82.7986 14.5492 82.4309 14.5492C81.1255 14.5492 80.0162 15.1621 79.5147 15.8362C79.147 16.5717 79.147 16.5717 79.147 20.4919C79.147 22.4531 79.147 24.1078 79.147 24.1691C79.147 24.1691 78.9018 24.1691 77.3012 24.1691C76.3105 24.1691 75.4749 24.1691 75.4565 24.1691L75.2134 24.4642ZM98.0097 24.4642C97.5194 24.4642 97.0904 23.8514 96.7472 23.2998C96.3795 22.6257 96.3182 21.7064 96.6246 21.2161C96.8085 21.2161 96.9923 20.6032 100.417 19.256C102.796 18.1528 104.101 17.6013 104.236 17.6013C104.665 17.5951 105.186 18.2141 105.431 18.5818C105.615 19.1947 105.615 19.5011 105.442 19.7463C105.319 19.7463 99.1567 24.2804 98.8248 24.4642C98.5796 24.4642 98.2732 24.4642 97.9872 24.4642H98.0097ZM120.331 24.4642C120.229 24.4642 118.725 23.4224 116.954 22.1354C114.417 20.3581 113.706 19.8076 113.632 19.685C113.265 18.9496 113.939 17.7238 114.785 17.6626C115.03 17.6626 115.336 17.6626 118.26 19.1334C120.025 19.9301 121.635 20.7258 121.844 20.7871C122.457 20.7871 122.651 21.4 122.712 21.8902C122.814 22.5644 122.467 23.4224 121.833 23.974C121.282 24.5868 120.768 24.6481 120.327 24.5868L120.331 24.4642ZM103.774 14.1703C102.161 13.4961 96.9147 10.9834 96.7789 10.8609C96.166 10.248 96.3499 8.96101 97.1466 8.103C97.5756 7.49015 97.9841 7.42886 98.4458 7.42886H98.8136L102.079 9.69643C105.094 11.7801 105.352 12.0253 105.493 12.2704C105.615 12.2704 105.615 12.8833 105.595 12.9446C105.493 13.5574 105.166 13.9251 104.829 14.108C104.4 14.108 104.216 14.108 103.793 14.108L103.774 14.1703ZM114.592 14.1703C113.815 14.1703 113.286 12.7005 113.652 12.0866C113.754 12.0866 114.847 11.1673 116.943 9.69643C118.69 8.47072 120.179 7.42886 120.252 7.42886C120.436 7.42886 121.008 7.42886 121.287 7.42886C121.716 7.42886 122.155 8.103 122.445 8.65458C122.69 9.26743 122.69 9.26743 122.69 9.69643C122.69 10.3093 122.69 10.3093 122.568 10.4319C122.384 11.0447 122.261 11.0447 121.41 11.2286C116.636 13.4359 115.14 14.109 114.985 14.1703C114.862 14.1703 114.678 14.1764 114.617 14.1703H114.592ZM109.181 10.9834C108.629 10.9834 108.303 10.3706 108.241 10.1254C108.241 10.1254 108.057 8.22557 107.874 6.14288C107.506 2.2206 107.506 2.22059 107.771 1.85288C108.017 1.24002 108.861 1.11745 109.499 1.11745C110.469 1.11745 111.386 1.73031 111.503 2.28188C111.503 2.28188 111.012 9.07132 110.869 10.1438C110.869 10.7567 110.624 10.7567 110.257 10.8792C109.95 10.8792 109.409 10.8792 109.147 10.8792L109.181 10.9834ZM109.058 30.6786C108.629 30.6786 108.01 30.0658 107.784 30.0045C107.416 29.3916 107.416 29.3916 107.784 25.4091C107.968 23.263 108.151 21.4245 108.213 21.3019C108.397 20.689 108.928 20.6278 109.567 20.6278C110.252 20.6278 110.793 21.2406 110.928 21.4245C111.03 21.4245 111.612 28.6501 111.622 29.1832C111.629 29.8574 111.071 30.409 110.133 30.5928C109.704 30.5928 109.5 30.5928 109.048 30.5928L109.058 30.6786ZM24.7631 24.7349C22.8581 24.1221 21.5466 22.7728 21.5527 20.8116C21.5578 18.8515 22.6681 17.3806 24.7324 16.5849C25.713 15.9721 26.8039 15.9721 28.6118 15.9108H29.1634C29.1634 15.2367 28.7344 14.6238 28.1031 14.3787C27.7354 14.3787 27.6128 14.3787 26.9693 14.3787C25.8172 14.3787 24.7753 14.3787 23.7712 15.0528C23.3422 15.0528 23.281 15.0528 23.2197 15.0528C23.0971 15.0528 22.5047 12.7863 22.5557 12.725C22.6783 12.725 24.2227 11.9283 25.2329 11.7444C26.0092 11.7444 27.9111 11.7444 28.6527 11.7444C30.5474 11.7444 31.9069 13.0324 32.5136 14.6248C32.8814 15.6667 32.9427 15.7893 32.9427 20.2008C32.9427 22.4061 33.0448 24.3672 33.0652 24.5511C33.1674 24.5511 33.0754 25.1639 32.9427 25.1639C32.9427 25.1639 32.6975 25.1639 32.5136 25.1639C31.5229 25.1639 30.529 24.5511 29.9029 23.9372C29.7803 23.9372 29.719 23.9372 29.719 23.9372C29.7088 23.9372 29.4739 23.9372 29.2287 24.55C28.7384 25.1629 28.238 25.3468 27.6782 25.5306C26.81 26.1435 25.6558 26.1435 24.7855 25.5306L24.7631 24.7349ZM27.9254 21.9148C28.4157 21.9148 28.8345 21.3019 29.0592 20.8116C29.243 20.1988 29.243 20.1988 29.243 19.4031V18.3612H28.477C26.4055 18.3612 25.3024 19.1579 25.2288 20.3224C25.1267 21.1804 25.474 21.7309 26.1685 21.976C26.5363 21.976 27.4433 21.976 27.8784 21.976L27.9254 21.9148ZM64.8521 24.7349C62.6152 24.1221 61.2669 22.2212 61.7388 19.8934C62.1065 17.9935 63.6631 16.7065 66.2249 16.1559C66.7765 16.1559 67.5977 16.1559 68.7008 16.1559H69.2524C69.2524 15.5431 69.0685 15.2979 68.7621 14.9915C68.2718 14.3787 67.9858 14.3787 66.7765 14.3787C65.9082 14.3787 65.7101 14.3787 65.183 14.3787C64.8766 14.3787 64.3148 14.3787 63.9818 14.9915C63.4915 14.9915 63.369 14.9915 63.3179 14.9915C63.1953 14.9915 62.5927 12.725 62.6437 12.6627C62.7663 12.6627 64.2556 11.9272 65.2974 11.6821C66.0839 11.6821 67.9695 11.6821 68.7355 11.6821C69.4199 11.6821 70.28 12.2949 70.7335 12.3562C71.953 13.0917 72.5353 14.0109 72.9326 15.7882C72.9326 15.7882 73.0347 17.6871 73.0552 20.0772C73.0552 22.2825 73.1573 24.2436 73.1777 24.4888C73.2799 25.1016 73.2799 25.1016 72.6262 25.1016C71.6027 25.1016 70.7079 25.1016 70.0276 23.8749C69.9051 23.8749 69.7825 23.262 69.7825 23.262C69.7723 23.262 69.5987 23.262 69.3535 23.8749C68.4036 24.7942 67.2085 25.2242 65.8224 25.2242C65.516 25.2242 65.1176 25.2242 64.8929 25.2242L64.8521 24.7349ZM68.0144 21.9148C68.5047 21.9148 68.9439 21.2406 69.1605 20.8116C69.3443 20.1988 69.3443 20.1988 69.3443 19.4031V18.2999H68.5782C66.3658 18.2999 65.2443 19.1579 65.324 20.5665C65.324 21.3019 65.6917 21.7309 66.2841 21.976C66.6518 21.976 67.5527 21.976 67.9817 21.976L68.0144 21.9148ZM87.1192 24.7349C86.8741 24.6328 86.4553 24.7349 86.1795 24.1221C85.2398 23.5092 84.678 22.8964 84.3654 21.7319L84.2429 21.1191V14.0426V6.97024H85.9344C87.1284 6.97024 87.6493 6.97024 87.7106 6.97024C87.8128 7.07238 87.8128 7.5831 87.8128 8.99267V10.9538H89.2959H90.78C90.78 10.9538 90.78 11.8118 90.78 12.6085V14.1407H89.2959H87.8128V16.8362C87.8128 19.6554 87.8209 20.0231 88.0579 20.5123C88.1805 20.5123 88.4869 21.1252 88.7831 21.1252C89.0895 21.1252 89.7126 21.1252 90.2049 21.1191C90.5114 21.0169 90.6339 21.0169 90.6339 21.1191C90.6339 21.1191 90.6339 21.7932 90.6339 22.5286C90.6339 23.5705 90.634 23.8769 90.5318 23.9382C90.2254 23.9382 87.8832 24.5511 87.0682 23.9382L87.1192 24.7349ZM5.84518 24.7349C4.88503 24.7349 4.28341 23.8156 3.89118 22.5889C3.76861 21.976 2.70939 17.8709 0.484718 8.72199C0.300861 7.86399 0.178289 7.43499 0.239575 7.43499C0.362146 7.43499 4.01375 7.43499 4.10568 7.43499C4.20783 7.43499 5.74099 15.4573 6.31197 18.7167C6.43454 19.5747 6.6184 20.3101 6.6184 20.3101C6.62861 20.3101 6.74097 19.6972 6.80225 19.4521C7.16997 17.5522 9.46205 7.56982 9.57237 7.43499C9.69494 7.43499 13.3404 7.43499 13.4446 7.44112C13.5672 7.44112 15.4977 16.7678 15.896 19.1457C16.0186 19.7585 16.0799 20.1262 16.0799 20.065C16.0799 20.065 16.182 20.065 16.182 19.4521C16.3659 18.1651 18.5967 7.33693 18.7009 7.20823C18.803 7.20823 22.2861 7.20823 22.378 7.20823C22.4802 7.31037 21.8264 9.59837 20.1962 15.8005C18.9583 20.4562 17.9277 24.3355 17.9093 24.3662C17.7867 24.3662 16.323 24.979 15.6917 24.3662C14.6499 24.3662 13.8838 23.4469 13.5284 22.3438C13.4058 21.7309 12.0575 15.7637 11.7695 14.2867C11.6469 13.6739 11.5243 13.0008 11.463 12.5707C11.3609 11.9579 11.3405 11.774 11.3405 11.774C11.3405 11.774 11.2383 11.774 11.2179 12.3869C11.034 13.49 10.7889 14.348 9.63774 19.1947C8.99424 21.829 8.43654 24.0352 8.38751 24.1578C8.28537 24.1578 8.26494 24.1578 7.83594 24.1578C7.22308 24.1578 6.21697 24.1578 5.84926 24.1578L5.84518 24.7349ZM35.1183 24.7349C35.1183 24.7349 35.1183 20.8116 35.1183 16.1253C35.1183 8.36653 35.1275 7.55143 35.2409 7.51466C35.343 7.51466 36.0784 7.51466 36.9875 7.51466C38.1877 7.51466 38.6586 7.51466 38.7076 7.51466C38.8097 7.61681 38.8097 9.53709 38.8097 16.0701C38.8097 20.7258 38.8097 24.5868 38.8097 24.642C38.8097 24.642 38.5646 24.642 37.0284 24.642C36.0682 24.642 35.2695 24.642 35.245 24.642L35.1183 24.7349ZM41.0487 24.7349C41.0487 24.7349 41.0487 21.7922 41.0487 18.2938C41.0487 13.393 41.0487 11.8721 41.1508 11.8169C41.2734 11.8169 44.3755 11.8169 44.4674 11.823C44.4674 11.823 44.5696 12.4359 44.5696 12.6198V13.3552L44.876 12.7423C45.4276 12.0682 46.2294 11.5769 47.1242 11.3317C47.6757 11.3317 48.7727 11.3317 49.3059 11.3256C50.2559 11.3256 51.1997 12.2449 51.6532 13.0426C51.7757 13.0426 51.8983 13.6555 51.8983 13.6555C51.8983 13.6555 52.0822 13.6555 52.266 13.0426C52.8176 12.3685 53.6511 11.7546 54.5162 11.5095C55.2006 11.5095 56.4284 11.5095 57.1086 11.5095C59.0565 12.1223 60.1964 13.5932 60.4415 16.1059C60.4415 16.7188 60.5437 18.3112 60.4415 20.7003V24.6226H58.653H56.8635V20.5777C56.8635 18.066 56.7613 16.4736 56.7409 16.2898C56.4958 15.3705 56.1893 14.8802 55.65 14.5738C54.9657 13.9609 54.0372 14.5738 53.4121 14.5738C53.1669 14.5738 52.8605 15.2479 52.7277 15.6156C52.6051 15.6156 52.6051 16.4123 52.6051 20.0884V24.2549H50.8473C49.4806 24.2549 49.0822 24.2549 49.0393 24.1527C49.0393 24.1527 49.0393 22.3141 49.0393 20.1089C49.0373 15.8199 49.0393 15.636 48.7329 15.0232C48.4878 14.4103 48.3039 14.349 47.926 14.1652C47.497 14.1652 46.7677 14.1652 46.2713 14.1591C45.781 14.1591 45.3928 14.8332 45.1191 15.3848L44.874 15.9976V20.164V24.3304H43.1089C42.1386 24.3304 41.3245 24.3304 41.3 24.3304L41.0487 24.7349ZM75.2083 24.7349C75.2083 24.7349 75.2083 21.7922 75.2083 18.2938C75.2083 13.393 75.2083 11.8721 75.3105 11.8169C75.4126 11.7148 75.8008 11.8169 76.8488 11.8169C77.6557 11.8169 78.3574 11.8169 78.4126 11.8169C78.5147 11.8169 78.5351 11.8169 78.5351 12.9211C78.5351 13.5339 78.5351 13.9619 78.5351 13.9619C78.5351 13.9619 78.719 13.9619 78.8416 13.3491C79.2706 12.4911 80.244 11.6933 81.1939 11.4482C81.6842 11.4482 82.7199 11.4482 82.8548 11.4482C82.9569 11.4482 82.9773 12.061 82.9773 13.1652C82.9773 14.4512 82.9773 14.7576 82.8752 14.8189C82.773 14.8189 82.6913 14.8189 82.3236 14.8189C81.0182 14.8189 79.909 15.4318 79.4074 16.1059C79.0397 16.8413 79.0397 16.8413 79.0397 20.7616C79.0397 22.7227 79.0397 24.3774 79.0397 24.4387C79.0397 24.4387 78.7946 24.4387 77.194 24.4387C76.2032 24.4387 75.3677 24.4387 75.3493 24.4387L75.2083 24.7349ZM97.9412 24.6328C97.3284 24.6328 96.7646 23.7748 96.4765 23.0394C96.2314 22.3039 96.354 21.4459 96.783 21.1395C96.8851 21.0374 98.5418 20.2815 100.484 19.3632C104.297 17.5859 104.278 17.5859 104.756 17.8311C105.471 18.4439 105.913 19.3632 105.543 19.9761C105.42 19.9761 99.312 24.4489 98.9065 24.6951C98.6614 24.6951 98.263 24.6951 97.9361 24.7012L97.9412 24.6328ZM120.281 24.6328C120.097 24.6328 113.826 20.1599 113.656 19.9761C113.472 19.9761 113.411 19.2407 113.533 18.7504C113.656 18.1375 114.085 17.8924 114.391 17.7085C114.82 17.7085 114.882 17.7085 118.602 19.2407C120.88 20.2825 122.197 20.9556 122.35 21.0782C123.249 21.8749 122.595 23.8974 121.266 24.5102C120.959 24.5102 120.51 24.5102 120.254 24.5102L120.281 24.6328ZM104.016 14.4553C103.525 14.4553 96.8453 11.1458 96.736 11.0233C96.072 10.4104 96.2457 9.06213 97.1037 8.14284C97.594 7.52998 98.2497 7.34613 98.7339 7.4687C98.979 7.4687 104.972 11.6974 105.375 12.0651C105.62 12.0651 105.743 12.678 105.682 12.9844C105.559 13.8424 104.652 14.6994 104.033 14.4542L104.016 14.4553ZM114.41 14.4553C114.226 14.4553 114.042 14.4553 113.919 13.8424C113.49 13.2296 113.307 12.4941 113.613 12.0651C113.797 12.0651 120.009 7.4687 120.363 7.34613C121.067 7.34613 122.029 7.95898 122.531 8.69441C122.715 9.30727 122.776 9.30727 122.776 9.67498C122.776 10.2878 122.786 10.2878 122.654 10.533C122.552 10.533 122.409 11.1458 122.347 11.1458C122.041 11.1458 115.169 14.5166 114.969 14.5166C114.786 14.5166 114.663 14.5166 114.418 14.5166L114.41 14.4553ZM109.078 11.3297C108.649 11.3297 108.271 10.7168 108.189 10.5943C108.189 10.5943 108.005 8.69441 107.822 6.6107C107.515 3.42486 107.515 2.68943 107.515 2.50557C107.638 1.89272 108.005 1.77015 108.455 1.58629C108.823 1.58629 108.884 1.58629 109.552 1.58629C110.236 1.58629 110.277 1.58629 110.679 1.58629C111.17 1.58629 111.486 2.19914 111.578 2.50557C111.578 2.50557 111.578 3.67001 111.333 6.48915C111.149 8.57184 110.965 10.3491 110.965 10.4717C110.863 11.1458 109.862 11.5748 109.078 11.3297Z" fill="#121212"/>
</svg>
